<svg xmlns="http://www.w3.org/2000/svg" xmlns:xlink="http://www.w3.org/1999/xlink" width="500" zoomAndPan="magnify" viewBox="0 0 375 374.999991" height="500" preserveAspectRatio="xMidYMid meet" version="1.0"><defs><clipPath id="b6b82a13fd"><path d="M 0.722656 0.722656 L 368.277344 0.722656 L 368.277344 368.277344 L 0.722656 368.277344 Z M 0.722656 0.722656 " clip-rule="nonzero"/></clipPath><clipPath id="09e9b29fda"><path d="M 184.5 0.722656 C 83.003906 0.722656 0.722656 83.003906 0.722656 184.5 C 0.722656 285.996094 83.003906 368.277344 184.5 368.277344 C 285.996094 368.277344 368.277344 285.996094 368.277344 184.5 C 368.277344 83.003906 285.996094 0.722656 184.5 0.722656 Z M 184.5 0.722656 " clip-rule="nonzero"/></clipPath><clipPath id="c87b669a27"><path d="M 0.722656 0.722656 L 368.277344 0.722656 L 368.277344 368.277344 L 0.722656 368.277344 Z M 0.722656 0.722656 " clip-rule="nonzero"/></clipPath><clipPath id="f706387ae5"><path d="M 184.5 0.722656 C 83.003906 0.722656 0.722656 83.003906 0.722656 184.5 C 0.722656 285.996094 83.003906 368.277344 184.5 368.277344 C 285.996094 368.277344 368.277344 285.996094 368.277344 184.5 C 368.277344 83.003906 285.996094 0.722656 184.5 0.722656 Z M 184.5 0.722656 " clip-rule="nonzero"/></clipPath><clipPath id="fb9e895664"><rect x="0" width="369" y="0" height="369"/></clipPath><clipPath id="9b9ad89e8c"><path d="M 45.613281 45.613281 L 323.382812 45.613281 L 323.382812 323.382812 L 45.613281 323.382812 Z M 45.613281 45.613281 " clip-rule="nonzero"/></clipPath><clipPath id="0311d7cc25"><path d="M 184.5 323.382812 C 261.203125 323.382812 323.382812 261.203125 323.382812 184.5 C 323.382812 107.792969 261.203125 45.613281 184.5 45.613281 C 107.792969 45.613281 45.613281 107.792969 45.613281 184.5 C 45.613281 261.203125 107.792969 323.382812 184.5 323.382812 Z M 184.5 323.382812 " clip-rule="nonzero"/></clipPath><clipPath id="51ca4be6ae"><path d="M 0.613281 0.613281 L 278.382812 0.613281 L 278.382812 278.382812 L 0.613281 278.382812 Z M 0.613281 0.613281 " clip-rule="nonzero"/></clipPath><clipPath id="af674d704f"><path d="M 139.5 278.382812 C 216.203125 278.382812 278.382812 216.203125 278.382812 139.5 C 278.382812 62.792969 216.203125 0.613281 139.5 0.613281 C 62.792969 0.613281 0.613281 62.792969 0.613281 139.5 C 0.613281 216.203125 62.792969 278.382812 139.5 278.382812 Z M 139.5 278.382812 " clip-rule="nonzero"/></clipPath><clipPath id="fac50a28eb"><rect x="0" width="279" y="0" height="279"/></clipPath><clipPath id="c9df4f0651"><path d="M 303 135 L 321.078125 135 L 321.078125 311 L 303 311 Z M 303 135 " clip-rule="nonzero"/></clipPath><clipPath id="06a3fb203e"><path d="M 47.617188 124.765625 L 47.617188 270.886719 C 47.617188 299.878906 71.121094 323.386719 100.117188 323.386719 L 268.570312 323.386719 C 297.566406 323.386719 321.070312 299.878906 321.070312 270.886719 L 321.070312 124.765625 C 321.070312 95.769531 297.566406 72.265625 268.570312 72.265625 L 100.117188 72.265625 C 71.121094 72.265625 47.617188 95.769531 47.617188 124.765625 Z M 47.617188 124.765625 " clip-rule="nonzero"/></clipPath><clipPath id="de7693154b"><path d="M 119 180 L 155 180 L 155 311 L 119 311 Z M 119 180 " clip-rule="nonzero"/></clipPath><clipPath id="cdd381e7c2"><path d="M 47.617188 124.765625 L 47.617188 270.886719 C 47.617188 299.878906 71.121094 323.386719 100.117188 323.386719 L 268.570312 323.386719 C 297.566406 323.386719 321.070312 299.878906 321.070312 270.886719 L 321.070312 124.765625 C 321.070312 95.769531 297.566406 72.265625 268.570312 72.265625 L 100.117188 72.265625 C 71.121094 72.265625 47.617188 95.769531 47.617188 124.765625 Z M 47.617188 124.765625 " clip-rule="nonzero"/></clipPath><clipPath id="68f3cfd2b6"><path d="M 104 145 L 158 145 L 158 311 L 104 311 Z M 104 145 " clip-rule="nonzero"/></clipPath><clipPath id="014d252342"><path d="M 47.617188 124.765625 L 47.617188 270.886719 C 47.617188 299.878906 71.121094 323.386719 100.117188 323.386719 L 268.570312 323.386719 C 297.566406 323.386719 321.070312 299.878906 321.070312 270.886719 L 321.070312 124.765625 C 321.070312 95.769531 297.566406 72.265625 268.570312 72.265625 L 100.117188 72.265625 C 71.121094 72.265625 47.617188 95.769531 47.617188 124.765625 Z M 47.617188 124.765625 " clip-rule="nonzero"/></clipPath><clipPath id="bd82957d60"><path d="M 195 136 L 232 136 L 232 309 L 195 309 Z M 195 136 " clip-rule="nonzero"/></clipPath><clipPath id="1e046d0198"><path d="M 47.617188 124.765625 L 47.617188 270.886719 C 47.617188 299.878906 71.121094 323.386719 100.117188 323.386719 L 268.570312 323.386719 C 297.566406 323.386719 321.070312 299.878906 321.070312 270.886719 L 321.070312 124.765625 C 321.070312 95.769531 297.566406 72.265625 268.570312 72.265625 L 100.117188 72.265625 C 71.121094 72.265625 47.617188 95.769531 47.617188 124.765625 Z M 47.617188 124.765625 " clip-rule="nonzero"/></clipPath><clipPath id="2aa7580a0d"><path d="M 59 112 L 84 112 L 84 275 L 59 275 Z M 59 112 " clip-rule="nonzero"/></clipPath><clipPath id="3f6b32dfdb"><path d="M 47.617188 124.765625 L 47.617188 270.886719 C 47.617188 299.878906 71.121094 323.386719 100.117188 323.386719 L 268.570312 323.386719 C 297.566406 323.386719 321.070312 299.878906 321.070312 270.886719 L 321.070312 124.765625 C 321.070312 95.769531 297.566406 72.265625 268.570312 72.265625 L 100.117188 72.265625 C 71.121094 72.265625 47.617188 95.769531 47.617188 124.765625 Z M 47.617188 124.765625 " clip-rule="nonzero"/></clipPath><clipPath id="75b37d4d30"><path d="M 238 143 L 272 143 L 272 311 L 238 311 Z M 238 143 " clip-rule="nonzero"/></clipPath><clipPath id="2ec19a0843"><path d="M 47.617188 124.765625 L 47.617188 270.886719 C 47.617188 299.878906 71.121094 323.386719 100.117188 323.386719 L 268.570312 323.386719 C 297.566406 323.386719 321.070312 299.878906 321.070312 270.886719 L 321.070312 124.765625 C 321.070312 95.769531 297.566406 72.265625 268.570312 72.265625 L 100.117188 72.265625 C 71.121094 72.265625 47.617188 95.769531 47.617188 124.765625 Z M 47.617188 124.765625 " clip-rule="nonzero"/></clipPath><clipPath id="2c34cd12d7"><path d="M 207 187 L 244 187 L 244 313 L 207 313 Z M 207 187 " clip-rule="nonzero"/></clipPath><clipPath id="26e7121660"><path d="M 47.617188 124.765625 L 47.617188 270.886719 C 47.617188 299.878906 71.121094 323.386719 100.117188 323.386719 L 268.570312 323.386719 C 297.566406 323.386719 321.070312 299.878906 321.070312 270.886719 L 321.070312 124.765625 C 321.070312 95.769531 297.566406 72.265625 268.570312 72.265625 L 100.117188 72.265625 C 71.121094 72.265625 47.617188 95.769531 47.617188 124.765625 Z M 47.617188 124.765625 " clip-rule="nonzero"/></clipPath><clipPath id="f371bd6010"><path d="M 158 165 L 194 165 L 194 306 L 158 306 Z M 158 165 " clip-rule="nonzero"/></clipPath><clipPath id="1aa93f8cda"><path d="M 47.617188 124.765625 L 47.617188 270.886719 C 47.617188 299.878906 71.121094 323.386719 100.117188 323.386719 L 268.570312 323.386719 C 297.566406 323.386719 321.070312 299.878906 321.070312 270.886719 L 321.070312 124.765625 C 321.070312 95.769531 297.566406 72.265625 268.570312 72.265625 L 100.117188 72.265625 C 71.121094 72.265625 47.617188 95.769531 47.617188 124.765625 Z M 47.617188 124.765625 " clip-rule="nonzero"/></clipPath><clipPath id="dfb1e93ed3"><path d="M 258 146 L 296 146 L 296 308 L 258 308 Z M 258 146 " clip-rule="nonzero"/></clipPath><clipPath id="835889f898"><path d="M 47.617188 124.765625 L 47.617188 270.886719 C 47.617188 299.878906 71.121094 323.386719 100.117188 323.386719 L 268.570312 323.386719 C 297.566406 323.386719 321.070312 299.878906 321.070312 270.886719 L 321.070312 124.765625 C 321.070312 95.769531 297.566406 72.265625 268.570312 72.265625 L 100.117188 72.265625 C 71.121094 72.265625 47.617188 95.769531 47.617188 124.765625 Z M 47.617188 124.765625 " clip-rule="nonzero"/></clipPath><clipPath id="ffc8cea251"><path d="M 64 149 L 113 149 L 113 313 L 64 313 Z M 64 149 " clip-rule="nonzero"/></clipPath><clipPath id="4128ddb3a4"><path d="M 47.617188 124.765625 L 47.617188 270.886719 C 47.617188 299.878906 71.121094 323.386719 100.117188 323.386719 L 268.570312 323.386719 C 297.566406 323.386719 321.070312 299.878906 321.070312 270.886719 L 321.070312 124.765625 C 321.070312 95.769531 297.566406 72.265625 268.570312 72.265625 L 100.117188 72.265625 C 71.121094 72.265625 47.617188 95.769531 47.617188 124.765625 Z M 47.617188 124.765625 " clip-rule="nonzero"/></clipPath><clipPath id="412ea164d5"><path d="M 47.617188 72.265625 L 321.078125 72.265625 L 321.078125 323.675781 L 47.617188 323.675781 Z M 47.617188 72.265625 " clip-rule="nonzero"/></clipPath><clipPath id="d716223040"><path d="M 47.617188 124.765625 L 47.617188 270.886719 C 47.617188 299.878906 71.121094 323.386719 100.117188 323.386719 L 268.570312 323.386719 C 297.566406 323.386719 321.070312 299.878906 321.070312 270.886719 L 321.070312 124.765625 C 321.070312 95.769531 297.566406 72.265625 268.570312 72.265625 L 100.117188 72.265625 C 71.121094 72.265625 47.617188 95.769531 47.617188 124.765625 Z M 47.617188 124.765625 " clip-rule="nonzero"/></clipPath><clipPath id="81264e73da"><path d="M 25.730469 25.886719 L 343.300781 25.886719 L 343.300781 343.457031 L 25.730469 343.457031 Z M 25.730469 25.886719 " clip-rule="nonzero"/></clipPath><clipPath id="480461272a"><path d="M 7 7 L 361.957031 7 L 361.957031 361.957031 L 7 361.957031 Z M 7 7 " clip-rule="nonzero"/></clipPath><clipPath id="3fefde2434"><rect x="0" width="369" y="0" height="369"/></clipPath></defs><g transform="matrix(1, 0, 0, 1, 3, 3)"><g clip-path="url(#3fefde2434)"><g clip-path="url(#b6b82a13fd)"><g clip-path="url(#09e9b29fda)"><g><g clip-path="url(#fb9e895664)"><g clip-path="url(#c87b669a27)"><g clip-path="url(#f706387ae5)"><path fill="#32582c" d="M 0.722656 0.722656 L 368.277344 0.722656 L 368.277344 368.277344 L 0.722656 368.277344 Z M 0.722656 0.722656 " fill-opacity="1" fill-rule="nonzero"/></g></g></g></g></g></g><g clip-path="url(#9b9ad89e8c)"><g clip-path="url(#0311d7cc25)"><g transform="matrix(1, 0, 0, 1, 45, 45)"><g clip-path="url(#fac50a28eb)"><g clip-path="url(#51ca4be6ae)"><g clip-path="url(#af674d704f)"><path fill="#8d9c6c" d="M 278.382812 278.382812 L 0.613281 278.382812 L 0.613281 0.613281 L 278.382812 0.613281 Z M 278.382812 278.382812 " fill-opacity="1" fill-rule="nonzero"/></g></g></g></g></g></g><g clip-path="url(#c9df4f0651)"><g clip-path="url(#06a3fb203e)"><path fill="#b3b3b3" d="M 334.351562 166.996094 L 331.535156 164.175781 L 328.714844 166.996094 L 328.671875 166.996094 L 318.769531 135.679688 L 308.867188 166.996094 L 308.824219 166.996094 L 306.003906 164.175781 L 303.183594 166.996094 L 303.089844 166.996094 L 303.089844 310.402344 L 334.449219 310.402344 L 334.449219 166.996094 L 334.351562 166.996094 " fill-opacity="1" fill-rule="nonzero"/></g></g><g clip-path="url(#de7693154b)"><g clip-path="url(#cdd381e7c2)"><path fill="#b3b3b3" d="M 146.894531 181.824219 C 146.5 180.898438 145.578125 180.246094 144.503906 180.246094 L 129.21875 180.246094 C 128.148438 180.246094 127.226562 180.898438 126.828125 181.824219 L 120.34375 181.824219 C 119.632812 181.824219 119.054688 182.402344 119.054688 183.117188 L 119.054688 310.402344 L 154.671875 310.402344 L 154.671875 183.117188 C 154.671875 182.402344 154.09375 181.824219 153.382812 181.824219 L 146.894531 181.824219 " fill-opacity="1" fill-rule="nonzero"/></g></g><g clip-path="url(#68f3cfd2b6)"><g clip-path="url(#014d252342)"><path fill="#b3b3b3" d="M 138.65625 153.902344 L 138.65625 145.539062 L 108.714844 145.539062 L 108.714844 153.902344 L 104.144531 153.902344 L 104.144531 310.402344 L 157.570312 310.402344 L 157.570312 153.902344 L 138.65625 153.902344 " fill-opacity="1" fill-rule="nonzero"/></g></g><g clip-path="url(#bd82957d60)"><g clip-path="url(#1e046d0198)"><path fill="#b3b3b3" d="M 222.886719 140.066406 L 222.886719 136.519531 L 205.234375 136.519531 L 205.234375 140.066406 L 195.699219 140.066406 L 195.699219 308.875 L 231.160156 308.875 L 231.160156 140.066406 L 222.886719 140.066406 " fill-opacity="1" fill-rule="nonzero"/></g></g><g clip-path="url(#2aa7580a0d)"><g clip-path="url(#3f6b32dfdb)"><path fill="#b3b3b3" d="M 78.820312 134.085938 L 78.820312 127.617188 L 75.667969 127.617188 L 75.667969 119.097656 L 73.777344 119.097656 L 73.777344 112.15625 L 69.523438 112.15625 L 69.523438 119.097656 L 67.316406 119.097656 L 67.316406 127.617188 L 64.636719 127.617188 L 64.636719 134.085938 L 59.277344 134.085938 L 59.277344 274.179688 L 83.707031 274.179688 L 83.707031 134.085938 L 78.820312 134.085938 " fill-opacity="1" fill-rule="nonzero"/></g></g><g clip-path="url(#75b37d4d30)"><g clip-path="url(#2ec19a0843)"><path fill="#b3b3b3" d="M 251.808594 145.382812 L 251.808594 143.488281 L 244.558594 143.488281 L 244.558594 145.382812 L 238.257812 145.382812 L 238.257812 310.402344 L 271.980469 310.402344 L 271.980469 145.382812 L 251.808594 145.382812 " fill-opacity="1" fill-rule="nonzero"/></g></g><g clip-path="url(#2c34cd12d7)"><g clip-path="url(#26e7121660)"><path fill="#4d4d4d" d="M 207.628906 312.546875 L 243.273438 312.546875 L 243.273438 187.554688 L 207.628906 194.339844 L 207.628906 312.546875 " fill-opacity="1" fill-rule="nonzero"/></g></g><g clip-path="url(#f371bd6010)"><g clip-path="url(#1aa93f8cda)"><path fill="#4d4d4d" d="M 187.78125 179.574219 L 187.78125 176.5 L 185.070312 176.5 L 185.070312 171.203125 L 181.066406 171.203125 L 181.066406 165.054688 L 176.160156 165.054688 L 176.160156 171.203125 L 167.375 171.203125 L 167.375 176.5 L 163.503906 176.5 L 163.503906 179.574219 L 158.078125 179.574219 L 158.078125 305.972656 L 193.59375 305.972656 L 193.59375 179.574219 L 187.78125 179.574219 " fill-opacity="1" fill-rule="nonzero"/></g></g><g clip-path="url(#dfb1e93ed3)"><g clip-path="url(#835889f898)"><path fill="#4d4d4d" d="M 290.726562 182.667969 L 290.738281 146.160156 L 288.929688 146.160156 L 288.917969 182.667969 L 281.8125 182.664062 L 281.816406 170.996094 L 265.542969 170.988281 L 265.539062 182.660156 L 258.566406 182.660156 L 258.527344 307.648438 L 295.847656 307.660156 L 295.890625 182.667969 L 290.726562 182.667969 " fill-opacity="1" fill-rule="nonzero"/></g></g><g clip-path="url(#ffc8cea251)"><g clip-path="url(#4128ddb3a4)"><path fill="#4d4d4d" d="M 103.945312 157.425781 L 103.945312 149.554688 L 73.078125 149.554688 L 73.078125 157.425781 L 64.296875 157.425781 L 64.296875 312.546875 L 112.597656 312.546875 L 112.597656 157.425781 L 103.945312 157.425781 " fill-opacity="1" fill-rule="nonzero"/></g></g><g clip-path="url(#412ea164d5)"><g clip-path="url(#d716223040)"><path fill="#000000" d="M 501.402344 244.226562 L 501.402344 224.035156 L 501.335938 224.035156 L 499.378906 222.074219 L 497.417969 224.035156 L 497.390625 224.035156 L 490.507812 202.269531 L 483.625 224.035156 L 483.59375 224.035156 L 481.632812 222.074219 L 479.675781 224.035156 L 479.605469 224.035156 L 479.605469 284.425781 L 473.101562 284.425781 L 473.101562 209.011719 L 459.082031 209.011719 L 459.082031 207.695312 L 454.046875 207.695312 L 454.046875 209.011719 L 449.664062 209.011719 L 449.664062 304.140625 L 447.214844 304.140625 L 444.453125 200.460938 L 436.566406 200.460938 L 436.566406 180.394531 L 435.03125 180.394531 L 435.03125 200.460938 L 427.257812 200.460938 L 424.625 299.097656 L 417.464844 299.097656 L 417.464844 235.238281 C 417.464844 234.742188 417.0625 234.339844 416.566406 234.339844 L 412.0625 234.339844 C 411.785156 233.695312 411.144531 233.246094 410.398438 233.246094 L 399.773438 233.246094 C 399.03125 233.246094 398.390625 233.695312 398.113281 234.339844 L 393.605469 234.339844 C 393.113281 234.339844 392.710938 234.742188 392.710938 235.238281 L 392.710938 281.824219 L 386.203125 281.824219 L 386.203125 233.246094 L 382.589844 233.246094 L 382.589844 228.75 L 381.277344 228.75 L 381.277344 225.570312 L 377.113281 225.570312 L 377.113281 222.71875 L 367.804688 222.71875 L 367.804688 225.570312 L 363.421875 225.570312 L 363.421875 228.75 L 359.042969 228.75 L 359.042969 233.246094 L 356.632812 233.246094 L 356.632812 304.140625 L 350.128906 304.140625 L 350.128906 206.378906 L 344.375 206.378906 L 344.375 203.914062 L 332.109375 203.914062 L 332.109375 206.378906 L 325.480469 206.378906 L 325.480469 289.773438 L 318.976562 289.773438 L 318.976562 222.71875 L 288.746094 228.203125 L 288.746094 265.625 L 279.1875 265.625 L 279.1875 218.132812 L 267.246094 218.132812 L 267.246094 208.703125 L 253.449219 208.703125 L 253.449219 218.132812 L 247.53125 218.132812 L 247.53125 304.140625 L 244.078125 304.140625 L 244.078125 242.5625 L 239.152344 242.5625 L 239.152344 240.589844 L 236.851562 240.589844 L 236.851562 237.191406 L 233.457031 237.191406 L 233.457031 233.246094 L 229.292969 233.246094 L 229.292969 237.191406 L 221.847656 237.191406 L 221.847656 240.589844 L 218.5625 240.589844 L 218.5625 242.5625 L 213.960938 242.5625 L 213.960938 293.746094 L 207.453125 293.746094 L 207.453125 222.71875 L 203.074219 222.71875 L 203.074219 193.222656 L 201.539062 193.222656 L 201.539062 222.71875 L 195.515625 222.71875 L 195.515625 213.289062 L 181.714844 213.289062 L 181.714844 222.71875 L 175.800781 222.71875 L 175.800781 284.425781 L 169.292969 284.425781 L 169.292969 188.835938 L 166.117188 188.835938 L 166.117188 173.488281 L 162.722656 173.488281 L 162.722656 163.070312 L 153.414062 154.40625 L 144.101562 163.070312 L 144.101562 173.488281 L 140.707031 173.488281 L 140.707031 188.835938 L 137.421875 188.835938 L 137.421875 273.265625 L 130.914062 273.265625 L 130.914062 161.203125 L 126.207031 161.203125 L 126.207031 144.757812 L 123.140625 144.757812 L 123.140625 131.382812 L 119.417969 131.382812 L 119.417969 103.421875 L 114.816406 103.421875 L 114.816406 72.28125 L 111.53125 72.28125 L 111.53125 103.421875 L 106.929688 103.421875 L 106.929688 131.382812 L 103.203125 131.382812 L 103.203125 144.757812 L 100.136719 144.757812 L 100.136719 161.203125 L 95.429688 161.203125 L 95.429688 237.808594 L 88.921875 237.808594 L 88.921875 198.375 L 81.585938 198.375 L 81.585938 192.015625 L 55.40625 192.015625 L 55.40625 198.375 L 47.960938 198.375 L 47.960938 323.703125 L 505.984375 323.703125 L 505.984375 244.226562 L 501.402344 244.226562 " fill-opacity="1" fill-rule="nonzero"/></g></g><g clip-path="url(#81264e73da)"><path fill="#32582c" d="M 184.34375 343.457031 C 169.753906 343.457031 155.679688 341.59375 142.121094 337.867188 C 128.5625 334.144531 115.886719 328.8125 104.089844 321.878906 C 92.292969 314.945312 81.582031 306.667969 71.957031 297.042969 C 62.332031 287.417969 54.054688 276.65625 47.121094 264.753906 C 40.1875 252.851562 34.855469 240.175781 31.132812 226.722656 C 27.40625 213.269531 25.492188 199.195312 25.386719 184.5 C 25.386719 169.90625 27.25 155.832031 30.976562 142.277344 C 34.703125 128.71875 40.03125 116.042969 46.964844 104.246094 C 53.898438 92.449219 62.175781 81.738281 71.800781 72.113281 C 81.425781 62.488281 92.1875 54.210938 104.089844 47.277344 C 115.992188 40.34375 128.667969 35.011719 142.121094 31.285156 C 155.574219 27.5625 169.648438 25.648438 184.34375 25.542969 C 198.9375 25.542969 213.011719 27.40625 226.566406 31.132812 C 240.125 34.855469 252.800781 40.1875 264.597656 47.121094 C 276.394531 54.054688 287.105469 62.332031 296.730469 71.957031 C 306.355469 81.582031 314.636719 92.34375 321.570312 104.246094 C 328.503906 116.144531 333.832031 128.773438 337.558594 142.121094 C 341.28125 155.472656 343.199219 169.597656 343.300781 184.5 C 343.300781 199.089844 341.4375 213.164062 337.710938 226.722656 C 333.988281 240.28125 328.65625 252.957031 321.722656 264.753906 C 314.789062 276.550781 306.511719 287.261719 296.886719 296.886719 C 287.261719 306.511719 276.5 314.789062 264.597656 321.722656 C 252.699219 328.65625 240.070312 333.988281 226.722656 337.714844 C 213.371094 341.4375 199.246094 343.351562 184.34375 343.457031 Z M 184.34375 45.414062 C 171.617188 45.414062 159.351562 47.070312 147.554688 50.378906 C 135.757812 53.691406 124.683594 58.347656 114.335938 64.351562 C 103.984375 70.351562 94.570312 77.648438 86.082031 86.238281 C 77.597656 94.828125 70.351562 104.195312 64.351562 114.335938 C 58.347656 124.476562 53.640625 135.550781 50.222656 147.554688 C 46.808594 159.558594 45.152344 171.875 45.257812 184.5 C 45.257812 197.230469 46.914062 209.492188 50.222656 221.289062 C 53.535156 233.085938 58.191406 244.160156 64.195312 254.507812 C 70.199219 264.859375 77.492188 274.273438 86.082031 282.761719 C 94.671875 291.246094 104.039062 298.492188 114.179688 304.492188 C 124.320312 310.496094 135.394531 315.203125 147.398438 318.621094 C 159.402344 322.035156 171.71875 323.691406 184.34375 323.585938 C 197.074219 323.585938 209.335938 321.929688 221.132812 318.621094 C 232.929688 315.308594 244.003906 310.652344 254.351562 304.648438 C 264.703125 298.648438 274.121094 291.351562 282.605469 282.761719 C 291.089844 274.171875 298.335938 264.804688 304.339844 254.664062 C 310.339844 244.523438 315.050781 233.449219 318.464844 221.445312 C 321.878906 209.441406 323.535156 197.125 323.429688 184.5 C 323.429688 171.769531 321.777344 159.507812 318.464844 147.710938 C 315.152344 135.914062 310.496094 124.839844 304.492188 114.492188 C 298.492188 104.140625 291.195312 94.722656 282.605469 86.238281 C 274.015625 77.753906 264.652344 70.507812 254.507812 64.507812 C 244.367188 58.503906 233.292969 53.796875 221.289062 50.378906 C 209.285156 46.964844 196.96875 45.308594 184.34375 45.414062 Z M 184.34375 45.414062 " fill-opacity="1" fill-rule="nonzero"/></g><g clip-path="url(#480461272a)"><path fill="#32582c" d="M 184.496094 361.957031 C 168.207031 361.957031 152.496094 359.878906 137.359375 355.71875 C 122.226562 351.5625 108.070312 345.609375 94.902344 337.871094 C 81.730469 330.128906 69.773438 320.886719 59.027344 310.140625 C 48.28125 299.398438 39.039062 287.382812 31.300781 274.09375 C 23.558594 260.808594 17.609375 246.65625 13.449219 231.636719 C 9.289062 216.617188 7.152344 200.902344 7.035156 184.496094 C 7.035156 168.207031 9.117188 152.496094 13.277344 137.359375 C 17.433594 122.226562 23.386719 108.070312 31.125 94.902344 C 38.867188 81.730469 48.109375 69.773438 58.855469 59.027344 C 69.597656 48.28125 81.613281 39.039062 94.902344 31.300781 C 108.1875 23.558594 122.339844 17.609375 137.359375 13.449219 C 152.378906 9.289062 168.09375 7.152344 184.496094 7.035156 C 200.789062 7.035156 216.5 9.117188 231.636719 13.277344 C 246.769531 17.433594 260.925781 23.386719 274.09375 31.125 C 287.265625 38.867188 299.222656 48.109375 309.96875 58.855469 C 320.714844 69.597656 329.957031 81.613281 337.695312 94.902344 C 345.4375 108.1875 351.386719 122.28125 355.546875 137.1875 C 359.707031 152.089844 361.84375 167.859375 361.957031 184.496094 C 361.957031 200.789062 359.878906 216.5 355.71875 231.636719 C 351.5625 246.769531 345.609375 260.921875 337.871094 274.09375 C 330.128906 287.265625 320.886719 299.222656 310.140625 309.96875 C 299.398438 320.714844 287.382812 329.957031 274.09375 337.695312 C 260.808594 345.4375 246.714844 351.386719 231.808594 355.546875 C 216.90625 359.707031 201.132812 361.84375 184.496094 361.957031 Z M 184.496094 29.21875 C 170.285156 29.21875 156.597656 31.066406 143.425781 34.765625 C 130.253906 38.460938 117.890625 43.660156 106.339844 50.363281 C 94.785156 57.0625 84.273438 65.207031 74.796875 74.796875 C 65.324219 84.386719 57.238281 94.84375 50.535156 106.164062 C 43.835938 117.488281 38.578125 129.851562 34.765625 143.25 C 30.953125 156.652344 29.105469 170.402344 29.21875 184.496094 C 29.21875 198.707031 31.066406 212.398438 34.765625 225.570312 C 38.460938 238.742188 43.660156 251.101562 50.363281 262.65625 C 57.0625 274.210938 65.207031 284.722656 74.796875 294.199219 C 84.386719 303.671875 94.84375 311.757812 106.164062 318.460938 C 117.488281 325.160156 129.851562 330.417969 143.253906 334.230469 C 156.652344 338.042969 170.402344 339.890625 184.496094 339.777344 C 198.707031 339.777344 212.398438 337.925781 225.570312 334.230469 C 238.742188 330.535156 251.101562 325.335938 262.65625 318.632812 C 274.210938 311.933594 284.722656 303.789062 294.199219 294.199219 C 303.671875 284.609375 311.757812 274.152344 318.460938 262.832031 C 325.160156 251.507812 330.417969 239.144531 334.230469 225.742188 C 338.042969 212.339844 339.890625 198.59375 339.777344 184.496094 C 339.777344 170.285156 337.925781 156.597656 334.230469 143.425781 C 330.535156 130.253906 325.335938 117.890625 318.632812 106.339844 C 311.933594 94.785156 303.789062 84.273438 294.199219 74.796875 C 284.609375 65.324219 274.152344 57.238281 262.832031 50.535156 C 251.507812 43.835938 239.144531 38.578125 225.742188 34.765625 C 212.339844 30.953125 198.59375 29.105469 184.496094 29.21875 Z M 184.496094 29.21875 " fill-opacity="1" fill-rule="nonzero"/></g></g></g></svg>