<?xml version="1.0" encoding="UTF-8"?>
<svg version="1.1" xmlns="http://www.w3.org/2000/svg" width="1000" height="600">
<path d="M0 0 C1.8595735 1.78260755 3.67039721 3.60212259 5.46826172 5.44677734 C7.22359243 7.22672857 9.07674849 8.84169864 11 10.4375 C15.08998618 13.9790206 18.53402628 17.85652113 22 22 C23.12535156 23.29357422 23.12535156 23.29357422 24.2734375 24.61328125 C33.57201387 35.45184267 41.49414501 46.99101701 48.34375 59.5234375 C48.79588867 60.34416748 49.24802734 61.16489746 49.71386719 62.01049805 C50.81227584 64.00535926 51.90759537 66.00184666 53 68 C54.24535019 67.99920441 55.49070038 67.99840881 56.77378845 67.99758911 C68.52937933 67.99398154 80.28453372 68.02185302 92.0399847 68.0802784 C98.08315737 68.10930888 104.12594278 68.12737776 110.16918945 68.12011719 C116.00500792 68.11351375 121.84006184 68.13606798 127.67572212 68.17855453 C129.89833415 68.1896675 132.12102387 68.19040234 134.34364128 68.18042374 C137.46553013 68.16820806 140.5851007 68.19341144 143.70678711 68.22705078 C144.61885422 68.21482986 145.53092133 68.20260895 146.47062683 68.1900177 C155.31844369 68.36100274 161.23454468 72.82846452 167.32641602 78.98583984 C168.40651695 80.06628067 168.40651695 80.06628067 169.50843811 81.16854858 C170.2494426 81.92503693 170.99044708 82.68152527 171.75390625 83.4609375 C172.93339088 84.6467894 172.93339088 84.6467894 174.13670349 85.8565979 C176.61917251 88.35571036 179.09093934 90.86510375 181.5625 93.375 C183.25515972 95.08272502 184.94851272 96.78976317 186.64257812 98.49609375 C190.7697639 102.65615838 194.88824075 106.82469027 199 111 C204.27637581 106.60287719 209.14150958 101.95185403 213.9453125 97.046875 C215.44893065 95.52575682 216.95284563 94.00493202 218.45703125 92.484375 C220.80166232 90.10869248 223.14386824 87.73076026 225.48095703 85.34765625 C227.75400975 83.03230755 230.03637755 80.72648289 232.3203125 78.421875 C233.01625519 77.7073114 233.71219788 76.9927478 234.42922974 76.25653076 C239.24699648 71.41346209 242.89455767 68.72087887 249.9375 68.6875 C251.15759766 68.66236328 251.15759766 68.66236328 252.40234375 68.63671875 C260.17510188 69.72373605 264.89254212 75.50117085 270.1171875 80.82421875 C271.4029216 82.11632011 271.4029216 82.11632011 272.71463013 83.43452454 C275.44189417 86.17853715 278.15852237 88.9328129 280.875 91.6875 C282.72586994 93.55342161 284.57742483 95.41866405 286.4296875 97.28320312 C290.96109296 101.84762726 295.48381819 106.42051528 300 111 C305.08808363 106.7509263 309.80501704 102.29234184 314.4375 97.5546875 C315.84085421 96.1338265 317.24450911 94.71326242 318.6484375 93.29296875 C320.83051338 91.07991703 323.01015797 88.86462634 325.18457031 86.64404297 C327.30371441 84.48240139 329.43233652 82.33046364 331.5625 80.1796875 C332.20437256 79.51919403 332.84624512 78.85870056 333.50756836 78.17819214 C337.89458461 73.76663664 342.34772689 69.68111407 348.66015625 68.50390625 C349.84931641 68.53291016 349.84931641 68.53291016 351.0625 68.5625 C352.25552734 68.56443359 352.25552734 68.56443359 353.47265625 68.56640625 C361.20683349 69.89328983 365.86531894 75.47343495 371.1171875 80.82421875 C372.4029216 82.11632011 372.4029216 82.11632011 373.71463013 83.43452454 C376.44189417 86.17853715 379.15852237 88.9328129 381.875 91.6875 C383.72586994 93.55342161 385.57742483 95.41866405 387.4296875 97.28320312 C391.96109296 101.84762726 396.48381819 106.42051528 401 111 C404.25533738 109.57503961 406.38314393 107.84767899 408.86303711 105.31640625 C409.6073851 104.56222412 410.35173309 103.80804199 411.11863708 103.03100586 C411.91351028 102.21639893 412.70838348 101.40179199 413.52734375 100.5625 C415.22318803 98.84623632 416.91915536 97.13009421 418.61523438 95.4140625 C421.28177524 92.7039933 423.94581261 89.99151938 426.60717773 87.27636719 C429.17830575 84.65698744 431.75854776 82.04685441 434.33984375 79.4375 C435.13269272 78.62289307 435.92554169 77.80828613 436.74241638 76.96899414 C437.86366661 75.83772095 437.86366661 75.83772095 439.00756836 74.68359375 C439.98541542 73.68670532 439.98541542 73.68670532 440.98301697 72.66967773 C445.47378897 68.95217397 449.90098972 68.70516853 455.54077148 68.7253418 C456.65394745 68.7176754 456.65394745 68.7176754 457.78961182 68.70985413 C460.23352203 68.69599724 462.67714901 68.69691188 465.12109375 68.69921875 C466.82593388 68.69532976 468.53077304 68.69099468 470.23561096 68.68623352 C473.80562483 68.67877978 477.37553979 68.67905651 480.94555664 68.68432617 C485.51306614 68.6901207 490.08017011 68.67318625 494.64761257 68.6499815 C498.16757054 68.63522684 501.68743121 68.63437479 505.20741463 68.63749123 C506.89107123 68.63697892 508.5747334 68.63175818 510.25835991 68.62167931 C512.61578362 68.60929792 514.97242219 68.61611615 517.32983398 68.62768555 C518.02041397 68.62004181 518.71099396 68.61239807 519.42250061 68.60452271 C526.11392084 68.67685256 530.4648018 71.07657642 535.09008789 75.74951172 C535.83428482 76.49393524 536.57848175 77.23835876 537.3452301 78.00534058 C538.12978073 78.80537506 538.91433136 79.60540955 539.72265625 80.4296875 C540.95730873 81.67070724 540.95730873 81.67070724 542.21690369 82.9367981 C544.83925004 85.5758861 547.45097463 88.22520788 550.0625 90.875 C551.82287234 92.65042933 553.58393292 94.42517653 555.34570312 96.19921875 C558.5811921 99.45917089 561.81271227 102.72294362 565.03930664 105.99169922 C567.31632234 108.29845244 569.5962222 110.60189488 571.88989258 112.89208984 C573.38929189 114.38992782 574.87517839 115.90134652 576.3515625 117.421875 C577.47691406 118.57429688 577.47691406 118.57429688 578.625 119.75 C579.38039063 120.52859375 580.13578125 121.3071875 580.9140625 122.109375 C582.94538253 124.20557053 582.94538253 124.20557053 586 125 C587.49902344 126.53125 587.49902344 126.53125 589.109375 128.5 C591.77714211 131.64746026 594.54186957 134.57686291 597.515625 137.4375 C598.29164063 138.18773437 599.06765625 138.93796875 599.8671875 139.7109375 C601.46387417 141.24480371 603.0681547 142.77080169 604.6796875 144.2890625 C610.47143523 149.92584708 613.29652376 154.25153537 614.5 162.375 C613.02270758 173.08537004 605.58407679 180.11039406 598.1875 187.3359375 C597.1294271 188.38720345 596.07239803 189.43952092 595.01635742 190.49282837 C592.25441298 193.24146469 589.47738444 195.97435745 586.69714355 198.70446777 C584.43270897 200.93339586 582.17956192 203.17354678 579.92686462 205.41432762 C577.22593648 208.10043107 574.51988193 210.78134081 571.8125 213.4609375 C571.30190033 213.9666264 570.79130066 214.47231529 570.26522827 214.99332809 C568.81104244 216.43111812 567.35342666 217.86533047 565.89453125 219.29833984 C565.06800049 220.11201019 564.24146973 220.92568054 563.38989258 221.76400757 C561.01916027 223.98207358 558.54430434 225.98596119 556 228 C554.84011913 229.23907979 553.71285446 230.50972795 552.625 231.8125 C535.30699195 252.01060874 535.30699195 252.01060874 525 256 C522.34287218 256.18733229 519.79254252 256.26478401 517.13640976 256.24609566 C515.93411812 256.24955719 515.93411812 256.24955719 514.70753777 256.25308865 C512.00495494 256.2584087 509.30260744 256.24938795 506.60003662 256.24050903 C504.64967806 256.24138069 502.69931972 256.24313093 500.74896264 256.24568737 C495.37642741 256.25017274 490.00397148 256.24214089 484.63144636 256.23213124 C478.84277818 256.22351615 473.05411468 256.22641552 467.26544189 256.22793579 C457.2318185 256.22898587 447.19822106 256.2226964 437.16460419 256.21146011 C422.65757627 256.19522477 408.15056093 256.18999912 393.64352491 256.18748413 C370.10837154 256.18328188 346.57323169 256.16980319 323.03808594 256.15087891 C300.17220125 256.13251397 277.30632027 256.11834482 254.44042969 256.10986328 C253.7357614 256.10960023 253.03109312 256.10933718 252.30507125 256.10906615 C245.22858499 256.10642914 238.1520987 256.10387751 231.07561239 256.10138843 C216.65964065 256.09631583 202.24366915 256.09067333 187.82769775 256.08468628 C187.16485614 256.0844117 186.50201453 256.08413712 185.81908681 256.08385422 C141.54605222 256.06544893 97.27302524 256.03371651 53 256 C52.70593262 256.9180542 52.41186523 257.8361084 52.10888672 258.78198242 C39.90269765 294.20465484 4.37039569 327.63265478 -27 346 C-27.58571777 346.34482422 -28.17143555 346.68964844 -28.77490234 347.04492188 C-58.55589548 364.48580799 -92.59680003 376.87179274 -127.4609375 377.23828125 C-128.24079514 377.2480751 -129.02065277 377.25786896 -129.82414246 377.26795959 C-190.71216489 377.87409017 -245.95988426 359.01115754 -290.03515625 316.0546875 C-295.59736168 310.58219506 -301.06046517 305.04818598 -306 299 C-306.74507813 298.09378906 -307.49015625 297.18757813 -308.2578125 296.25390625 C-319.10909011 282.76324544 -327.78904477 267.71221034 -335 252 C-335.2985791 251.35305176 -335.5971582 250.70610352 -335.90478516 250.03955078 C-358.73394069 199.76564478 -359.94983298 140.81484584 -341.35546875 89.05078125 C-330.44641022 60.24617467 -314.18863189 35.18609958 -293 13 C-292.12730469 12.07445312 -291.25460937 11.14890625 -290.35546875 10.1953125 C-283.43549112 3.04230488 -275.98218556 -3.07963359 -268 -9 C-266.49373047 -10.12341797 -266.49373047 -10.12341797 -264.95703125 -11.26953125 C-249.5052959 -22.36359738 -232.79125926 -31.30802361 -215 -38 C-214.35933594 -38.24298828 -213.71867188 -38.48597656 -213.05859375 -38.73632812 C-141.18529642 -65.51714274 -58.0700795 -49.54941786 0 0 Z " fill="#32582C" transform="translate(368,143)"/>
<path d="M0 0 C21.23856366 17.78666788 35.81601213 39.29754246 46.15625 64.8671875 C46.63191406 66.03121094 47.10757812 67.19523437 47.59765625 68.39453125 C58.20969611 96.04919035 59.49293807 132.85712328 50.15625 160.8671875 C49.50027832 160.98312256 48.84430664 161.09905762 48.16845703 161.21850586 C45.20547551 161.74402669 42.24336346 162.27429668 39.28125 162.8046875 C37.73244141 163.07829102 37.73244141 163.07829102 36.15234375 163.35742188 C35.16621094 163.53466797 34.18007813 163.71191406 33.1640625 163.89453125 C32.25285645 164.05687256 31.34165039 164.21921387 30.40283203 164.38647461 C28.13430304 164.77392537 28.13430304 164.77392537 26.15625 165.8671875 C23.18625 165.8671875 20.21625 165.8671875 17.15625 165.8671875 C17.15625 179.7271875 17.15625 193.5871875 17.15625 207.8671875 C13.52625 207.8671875 9.89625 207.8671875 6.15625 207.8671875 C6.15625 190.7071875 6.15625 173.5471875 6.15625 155.8671875 C1.86625 155.8671875 -2.42375 155.8671875 -6.84375 155.8671875 C-6.84375 152.2371875 -6.84375 148.6071875 -6.84375 144.8671875 C-11.79375 144.8671875 -16.74375 144.8671875 -21.84375 144.8671875 C-21.84375 148.1671875 -21.84375 151.4671875 -21.84375 154.8671875 C-24.15375 154.8671875 -26.46375 154.8671875 -28.84375 154.8671875 C-28.84375 186.5471875 -28.84375 218.2271875 -28.84375 250.8671875 C-29.83375 250.8671875 -30.82375 250.8671875 -31.84375 250.8671875 C-31.84375 228.4271875 -31.84375 205.9871875 -31.84375 182.8671875 C-33.82375 182.8671875 -35.80375 182.8671875 -37.84375 182.8671875 C-37.84375 181.8771875 -37.84375 180.8871875 -37.84375 179.8671875 C-38.50375 179.8671875 -39.16375 179.8671875 -39.84375 179.8671875 C-39.84375 178.8771875 -39.84375 177.8871875 -39.84375 176.8671875 C-41.16375 176.8671875 -42.48375 176.8671875 -43.84375 176.8671875 C-43.84375 175.2171875 -43.84375 173.5671875 -43.84375 171.8671875 C-45.49375 171.8671875 -47.14375 171.8671875 -48.84375 171.8671875 C-48.84375 173.5171875 -48.84375 175.1671875 -48.84375 176.8671875 C-51.48375 176.8671875 -54.12375 176.8671875 -56.84375 176.8671875 C-56.84375 178.1871875 -56.84375 179.5071875 -56.84375 180.8671875 C-59.81375 181.1971875 -62.78375 181.5271875 -65.84375 181.8671875 C-65.84375 200.6771875 -65.84375 219.4871875 -65.84375 238.8671875 C-68.15375 238.8671875 -70.46375 238.8671875 -72.84375 238.8671875 C-72.84375 213.1271875 -72.84375 187.3871875 -72.84375 160.8671875 C-74.49375 160.8671875 -76.14375 160.8671875 -77.84375 160.8671875 C-77.84375 149.9771875 -77.84375 139.0871875 -77.84375 127.8671875 C-78.50375 127.8671875 -79.16375 127.8671875 -79.84375 127.8671875 C-79.84375 138.7571875 -79.84375 149.6471875 -79.84375 160.8671875 C-81.82375 160.8671875 -83.80375 160.8671875 -85.84375 160.8671875 C-85.84375 157.2371875 -85.84375 153.6071875 -85.84375 149.8671875 C-91.12375 149.8671875 -96.40375 149.8671875 -101.84375 149.8671875 C-101.84375 153.4971875 -101.84375 157.1271875 -101.84375 160.8671875 C-103.82375 160.8671875 -105.80375 160.8671875 -107.84375 160.8671875 C-107.84375 183.3071875 -107.84375 205.7471875 -107.84375 228.8671875 C-110.15375 228.8671875 -112.46375 228.8671875 -114.84375 228.8671875 C-114.84375 193.8871875 -114.84375 158.9071875 -114.84375 122.8671875 C-116.16375 122.8671875 -117.48375 122.8671875 -118.84375 122.8671875 C-118.84375 117.2571875 -118.84375 111.6471875 -118.84375 105.8671875 C-120.16375 105.8671875 -121.48375 105.8671875 -122.84375 105.8671875 C-122.823125 105.09375 -122.8025 104.3203125 -122.78125 103.5234375 C-122.90272497 97.38895139 -123.31344147 93.61517915 -127.78125 89.1796875 C-129.76843195 87.4377476 -131.48396256 86.04708122 -133.84375 84.8671875 C-133.84375 85.5271875 -133.84375 86.1871875 -133.84375 86.8671875 C-135.13710877 87.85120078 -136.45395612 88.80445087 -137.78125 89.7421875 C-140.64380664 92.12007846 -141.7157323 93.33588087 -142.59765625 96.99609375 C-142.81903514 99.97240997 -142.92211387 102.88446264 -142.84375 105.8671875 C-144.16375 105.8671875 -145.48375 105.8671875 -146.84375 105.8671875 C-146.84375 111.4771875 -146.84375 117.0871875 -146.84375 122.8671875 C-148.16375 122.8671875 -149.48375 122.8671875 -150.84375 122.8671875 C-150.84375 153.8871875 -150.84375 184.9071875 -150.84375 216.8671875 C-153.15375 216.8671875 -155.46375 216.8671875 -157.84375 216.8671875 C-157.84375 175.6171875 -157.84375 134.3671875 -157.84375 91.8671875 C-159.49375 91.8671875 -161.14375 91.8671875 -162.84375 91.8671875 C-162.84375 86.2571875 -162.84375 80.6471875 -162.84375 74.8671875 C-163.83375 74.8671875 -164.82375 74.8671875 -165.84375 74.8671875 C-165.84375 69.9171875 -165.84375 64.9671875 -165.84375 59.8671875 C-167.49375 59.8671875 -169.14375 59.8671875 -170.84375 59.8671875 C-170.84375 49.6371875 -170.84375 39.4071875 -170.84375 28.8671875 C-172.49375 28.8671875 -174.14375 28.8671875 -175.84375 28.8671875 C-175.84375 17.6471875 -175.84375 6.4271875 -175.84375 -5.1328125 C-176.83375 -5.1328125 -177.82375 -5.1328125 -178.84375 -5.1328125 C-178.84375 6.0871875 -178.84375 17.3071875 -178.84375 28.8671875 C-180.49375 28.8671875 -182.14375 28.8671875 -183.84375 28.8671875 C-183.84375 39.0971875 -183.84375 49.3271875 -183.84375 59.8671875 C-185.16375 59.8671875 -186.48375 59.8671875 -187.84375 59.8671875 C-187.84375 64.4871875 -187.84375 69.1071875 -187.84375 73.8671875 C-189.16375 73.8671875 -190.48375 73.8671875 -191.84375 73.8671875 C-191.84375 79.8071875 -191.84375 85.7471875 -191.84375 91.8671875 C-193.49375 91.8671875 -195.14375 91.8671875 -196.84375 91.8671875 C-196.84375 119.9171875 -196.84375 147.9671875 -196.84375 176.8671875 C-199.15375 176.8671875 -201.46375 176.8671875 -203.84375 176.8671875 C-203.84375 162.6771875 -203.84375 148.4871875 -203.84375 133.8671875 C-206.81375 133.8671875 -209.78375 133.8671875 -212.84375 133.8671875 C-212.84375 131.5571875 -212.84375 129.2471875 -212.84375 126.8671875 C-222.08375 126.8671875 -231.32375 126.8671875 -240.84375 126.8671875 C-240.84375 129.1771875 -240.84375 131.4871875 -240.84375 133.8671875 C-243.81375 133.8671875 -246.78375 133.8671875 -249.84375 133.8671875 C-249.84375 136.1771875 -249.84375 138.4871875 -249.84375 140.8671875 C-250.17375 140.8671875 -250.50375 140.8671875 -250.84375 140.8671875 C-254.51505878 121.60898349 -253.07491774 98.66064198 -247.84375 79.8671875 C-247.64007813 79.11695313 -247.43640625 78.36671875 -247.2265625 77.59375 C-240.05693328 52.01322106 -226.56325058 30.38451597 -208.84375 10.8671875 C-208.24304688 10.19429687 -207.64234375 9.52140625 -207.0234375 8.828125 C-153.02629991 -48.42512139 -58.99748134 -48.46643092 0 0 Z " fill="#8C9B6B" transform="translate(329.84375,186.1328125)"/>
<path d="M0 0 C0.99 0 1.98 0 3 0 C3 11.22 3 22.44 3 34 C4.65 34 6.3 34 8 34 C8 44.23 8 54.46 8 65 C9.65 65 11.3 65 13 65 C13 69.95 13 74.9 13 80 C13.99 80 14.98 80 16 80 C16 85.61 16 91.22 16 97 C17.65 97 19.3 97 21 97 C21 138.25 21 179.5 21 222 C23.31 222 25.62 222 28 222 C28 190.98 28 159.96 28 128 C29.32 128 30.64 128 32 128 C32 122.39 32 116.78 32 111 C33.32 111 34.64 111 36 111 C35.87818359 109.82244141 35.87818359 109.82244141 35.75390625 108.62109375 C35.247102 100.19159447 35.247102 100.19159447 37.48828125 96.64453125 C39.24820547 94.87731956 40.90178242 93.348176 43 92 C43.66 92 44.32 92 45 92 C45 91.34 45 90.68 45 90 C49.5951168 92.1348994 53.29191933 94.63573777 56 99 C56.58434848 103.07011421 56.42216179 106.91910273 56 111 C57.32 111 58.64 111 60 111 C60 116.61 60 122.22 60 128 C61.32 128 62.64 128 64 128 C64 162.98 64 197.96 64 234 C66.31 234 68.62 234 71 234 C71 211.56 71 189.12 71 166 C72.98 166 74.96 166 77 166 C77 162.37 77 158.74 77 155 C82.28 155 87.56 155 93 155 C93 158.63 93 162.26 93 166 C94.98 166 96.96 166 99 166 C99 155.11 99 144.22 99 133 C99.66 133 100.32 133 101 133 C101 143.89 101 154.78 101 166 C102.65 166 104.3 166 106 166 C106 191.74 106 217.48 106 244 C108.31 244 110.62 244 113 244 C113 225.19 113 206.38 113 187 C115.97 186.67 118.94 186.34 122 186 C122 184.68 122 183.36 122 182 C124.64 182 127.28 182 130 182 C130 180.35 130 178.7 130 177 C131.65 177 133.3 177 135 177 C135 178.65 135 180.3 135 182 C136.32 182 137.64 182 139 182 C139 182.99 139 183.98 139 185 C139.66 185 140.32 185 141 185 C141 185.99 141 186.98 141 188 C142.98 188 144.96 188 147 188 C147 210.44 147 232.88 147 256 C147.99 256 148.98 256 150 256 C150 224.32 150 192.64 150 160 C152.31 160 154.62 160 157 160 C157 156.7 157 153.4 157 150 C161.95 150 166.9 150 172 150 C172 153.63 172 157.26 172 161 C176.29 161 180.58 161 185 161 C185 178.16 185 195.32 185 213 C188.63 213 192.26 213 196 213 C196 199.14 196 185.28 196 171 C198.97 170.67 201.94 170.34 205 170 C207.15490631 169.51808005 209.30234927 169.00052701 211.4375 168.4375 C217.07279061 167.07177075 222.22377031 166.64794988 228 167 C221.18994325 193.39707713 206.54012581 214.50835918 188 234 C187.11248047 234.96679688 187.11248047 234.96679688 186.20703125 235.953125 C171.59047361 251.39975875 151.75796348 261.77944984 132 269 C131.35579102 269.23944336 130.71158203 269.47888672 130.04785156 269.72558594 C114.66481348 275.38146073 100.37521144 277.48940195 84.06542969 277.33618164 C81.37144162 277.31246868 78.67844214 277.31566252 75.984375 277.32226562 C62.95215234 277.30257824 50.69822502 276.18771994 38.1875 272.3125 C36.91628296 271.92384766 36.91628296 271.92384766 35.61938477 271.52734375 C-3.35111824 259.24971692 -37.02334207 232.03716629 -56.07080078 195.81835938 C-65.4270174 177.50908419 -71.26486339 159.70628221 -70 139 C-67.36 139 -64.72 139 -62 139 C-62 136.69 -62 134.38 -62 132 C-52.76 132 -43.52 132 -34 132 C-34 134.31 -34 136.62 -34 139 C-31.03 139 -28.06 139 -25 139 C-25 153.19 -25 167.38 -25 182 C-22.69 182 -20.38 182 -18 182 C-18 153.95 -18 125.9 -18 97 C-16.35 97 -14.7 97 -13 97 C-13 91.06 -13 85.12 -13 79 C-11.68 79 -10.36 79 -9 79 C-9 74.38 -9 69.76 -9 65 C-7.68 65 -6.36 65 -5 65 C-5 54.77 -5 44.54 -5 34 C-3.35 34 -1.7 34 0 34 C0 22.78 0 11.56 0 0 Z " fill="#010101" transform="translate(151,181)"/>
<path d="M0 0 C1.8595735 1.78260755 3.67039721 3.60212259 5.46826172 5.44677734 C7.22359243 7.22672857 9.07674849 8.84169864 11 10.4375 C15.08998618 13.9790206 18.53402628 17.85652113 22 22 C23.12535156 23.29357422 23.12535156 23.29357422 24.2734375 24.61328125 C33.57201387 35.45184267 41.49414501 46.99101701 48.34375 59.5234375 C48.79588867 60.34416748 49.24802734 61.16489746 49.71386719 62.01049805 C50.81227584 64.00535926 51.90759537 66.00184666 53 68 C54.24535019 67.99920441 55.49070038 67.99840881 56.77378845 67.99758911 C68.52937933 67.99398154 80.28453372 68.02185302 92.0399847 68.0802784 C98.08315737 68.10930888 104.12594278 68.12737776 110.16918945 68.12011719 C116.00500792 68.11351375 121.84006184 68.13606798 127.67572212 68.17855453 C129.89833415 68.1896675 132.12102387 68.19040234 134.34364128 68.18042374 C137.46553013 68.16820806 140.5851007 68.19341144 143.70678711 68.22705078 C144.61885422 68.21482986 145.53092133 68.20260895 146.47062683 68.1900177 C155.31844369 68.36100274 161.23454468 72.82846452 167.32641602 78.98583984 C168.40651695 80.06628067 168.40651695 80.06628067 169.50843811 81.16854858 C170.2494426 81.92503693 170.99044708 82.68152527 171.75390625 83.4609375 C172.93339088 84.6467894 172.93339088 84.6467894 174.13670349 85.8565979 C176.61917251 88.35571036 179.09093934 90.86510375 181.5625 93.375 C183.25515972 95.08272502 184.94851272 96.78976317 186.64257812 98.49609375 C190.7697639 102.65615838 194.88824075 106.82469027 199 111 C204.27637581 106.60287719 209.14150958 101.95185403 213.9453125 97.046875 C215.44893065 95.52575682 216.95284563 94.00493202 218.45703125 92.484375 C220.80166232 90.10869248 223.14386824 87.73076026 225.48095703 85.34765625 C227.75400975 83.03230755 230.03637755 80.72648289 232.3203125 78.421875 C233.01625519 77.7073114 233.71219788 76.9927478 234.42922974 76.25653076 C239.24699648 71.41346209 242.89455767 68.72087887 249.9375 68.6875 C251.15759766 68.66236328 251.15759766 68.66236328 252.40234375 68.63671875 C260.17510188 69.72373605 264.89254212 75.50117085 270.1171875 80.82421875 C271.4029216 82.11632011 271.4029216 82.11632011 272.71463013 83.43452454 C275.44189417 86.17853715 278.15852237 88.9328129 280.875 91.6875 C282.72586994 93.55342161 284.57742483 95.41866405 286.4296875 97.28320312 C290.96109296 101.84762726 295.48381819 106.42051528 300 111 C305.08808363 106.7509263 309.80501704 102.29234184 314.4375 97.5546875 C315.84085421 96.1338265 317.24450911 94.71326242 318.6484375 93.29296875 C320.83051338 91.07991703 323.01015797 88.86462634 325.18457031 86.64404297 C327.30371441 84.48240139 329.43233652 82.33046364 331.5625 80.1796875 C332.20437256 79.51919403 332.84624512 78.85870056 333.50756836 78.17819214 C337.89458461 73.76663664 342.34772689 69.68111407 348.66015625 68.50390625 C349.84931641 68.53291016 349.84931641 68.53291016 351.0625 68.5625 C352.25552734 68.56443359 352.25552734 68.56443359 353.47265625 68.56640625 C361.20683349 69.89328983 365.86531894 75.47343495 371.1171875 80.82421875 C372.4029216 82.11632011 372.4029216 82.11632011 373.71463013 83.43452454 C376.44189417 86.17853715 379.15852237 88.9328129 381.875 91.6875 C383.72586994 93.55342161 385.57742483 95.41866405 387.4296875 97.28320312 C391.96109296 101.84762726 396.48381819 106.42051528 401 111 C404.25533738 109.57503961 406.38314393 107.84767899 408.86303711 105.31640625 C409.6073851 104.56222412 410.35173309 103.80804199 411.11863708 103.03100586 C411.91351028 102.21639893 412.70838348 101.40179199 413.52734375 100.5625 C415.22318803 98.84623632 416.91915536 97.13009421 418.61523438 95.4140625 C421.28177524 92.7039933 423.94581261 89.99151938 426.60717773 87.27636719 C429.17830575 84.65698744 431.75854776 82.04685441 434.33984375 79.4375 C435.13269272 78.62289307 435.92554169 77.80828613 436.74241638 76.96899414 C437.86366661 75.83772095 437.86366661 75.83772095 439.00756836 74.68359375 C439.98541542 73.68670532 439.98541542 73.68670532 440.98301697 72.66967773 C445.47378897 68.95217397 449.90098972 68.70516853 455.54077148 68.7253418 C456.65394745 68.7176754 456.65394745 68.7176754 457.78961182 68.70985413 C460.23352203 68.69599724 462.67714901 68.69691188 465.12109375 68.69921875 C466.82593388 68.69532976 468.53077304 68.69099468 470.23561096 68.68623352 C473.80562483 68.67877978 477.37553979 68.67905651 480.94555664 68.68432617 C485.51306614 68.6901207 490.08017011 68.67318625 494.64761257 68.6499815 C498.16757054 68.63522684 501.68743121 68.63437479 505.20741463 68.63749123 C506.89107123 68.63697892 508.5747334 68.63175818 510.25835991 68.62167931 C512.61578362 68.60929792 514.97242219 68.61611615 517.32983398 68.62768555 C518.02041397 68.62004181 518.71099396 68.61239807 519.42250061 68.60452271 C526.11392084 68.67685256 530.4648018 71.07657642 535.09008789 75.74951172 C535.83428482 76.49393524 536.57848175 77.23835876 537.3452301 78.00534058 C538.12978073 78.80537506 538.91433136 79.60540955 539.72265625 80.4296875 C540.95730873 81.67070724 540.95730873 81.67070724 542.21690369 82.9367981 C544.83925004 85.5758861 547.45097463 88.22520788 550.0625 90.875 C551.82287234 92.65042933 553.58393292 94.42517653 555.34570312 96.19921875 C558.5811921 99.45917089 561.81271227 102.72294362 565.03930664 105.99169922 C567.31632234 108.29845244 569.5962222 110.60189488 571.88989258 112.89208984 C573.38929189 114.38992782 574.87517839 115.90134652 576.3515625 117.421875 C577.47691406 118.57429688 577.47691406 118.57429688 578.625 119.75 C579.38039063 120.52859375 580.13578125 121.3071875 580.9140625 122.109375 C582.94538253 124.20557053 582.94538253 124.20557053 586 125 C587.49902344 126.53125 587.49902344 126.53125 589.109375 128.5 C591.77714211 131.64746026 594.54186957 134.57686291 597.515625 137.4375 C598.29164063 138.18773437 599.06765625 138.93796875 599.8671875 139.7109375 C601.46387417 141.24480371 603.0681547 142.77080169 604.6796875 144.2890625 C610.47143523 149.92584708 613.29652376 154.25153537 614.5 162.375 C613.02270758 173.08537004 605.58407679 180.11039406 598.1875 187.3359375 C597.1294271 188.38720345 596.07239803 189.43952092 595.01635742 190.49282837 C592.25441298 193.24146469 589.47738444 195.97435745 586.69714355 198.70446777 C584.43270897 200.93339586 582.17956192 203.17354678 579.92686462 205.41432762 C577.22593648 208.10043107 574.51988193 210.78134081 571.8125 213.4609375 C571.30190033 213.9666264 570.79130066 214.47231529 570.26522827 214.99332809 C568.81104244 216.43111812 567.35342666 217.86533047 565.89453125 219.29833984 C565.06800049 220.11201019 564.24146973 220.92568054 563.38989258 221.76400757 C561.01916027 223.98207358 558.54430434 225.98596119 556 228 C554.84011913 229.23907979 553.71285446 230.50972795 552.625 231.8125 C535.30699195 252.01060874 535.30699195 252.01060874 525 256 C522.34287218 256.18733229 519.79254252 256.26478401 517.13640976 256.24609566 C515.93411812 256.24955719 515.93411812 256.24955719 514.70753777 256.25308865 C512.00495494 256.2584087 509.30260744 256.24938795 506.60003662 256.24050903 C504.64967806 256.24138069 502.69931972 256.24313093 500.74896264 256.24568737 C495.37642741 256.25017274 490.00397148 256.24214089 484.63144636 256.23213124 C478.84277818 256.22351615 473.05411468 256.22641552 467.26544189 256.22793579 C457.2318185 256.22898587 447.19822106 256.2226964 437.16460419 256.21146011 C422.65757627 256.19522477 408.15056093 256.18999912 393.64352491 256.18748413 C370.10837154 256.18328188 346.57323169 256.16980319 323.03808594 256.15087891 C300.17220125 256.13251397 277.30632027 256.11834482 254.44042969 256.10986328 C253.7357614 256.10960023 253.03109312 256.10933718 252.30507125 256.10906615 C245.22858499 256.10642914 238.1520987 256.10387751 231.07561239 256.10138843 C216.65964065 256.09631583 202.24366915 256.09067333 187.82769775 256.08468628 C187.16485614 256.0844117 186.50201453 256.08413712 185.81908681 256.08385422 C141.54605222 256.06544893 97.27302524 256.03371651 53 256 C52.70593262 256.9180542 52.41186523 257.8361084 52.10888672 258.78198242 C39.90269765 294.20465484 4.37039569 327.63265478 -27 346 C-27.58571777 346.34482422 -28.17143555 346.68964844 -28.77490234 347.04492188 C-58.55589548 364.48580799 -92.59680003 376.87179274 -127.4609375 377.23828125 C-128.24079514 377.2480751 -129.02065277 377.25786896 -129.82414246 377.26795959 C-190.71216489 377.87409017 -245.95988426 359.01115754 -290.03515625 316.0546875 C-295.59736168 310.58219506 -301.06046517 305.04818598 -306 299 C-306.74507813 298.09378906 -307.49015625 297.18757813 -308.2578125 296.25390625 C-319.10909011 282.76324544 -327.78904477 267.71221034 -335 252 C-335.2985791 251.35305176 -335.5971582 250.70610352 -335.90478516 250.03955078 C-358.73394069 199.76564478 -359.94983298 140.81484584 -341.35546875 89.05078125 C-330.44641022 60.24617467 -314.18863189 35.18609958 -293 13 C-292.12730469 12.07445312 -291.25460937 11.14890625 -290.35546875 10.1953125 C-283.43549112 3.04230488 -275.98218556 -3.07963359 -268 -9 C-266.49373047 -10.12341797 -266.49373047 -10.12341797 -264.95703125 -11.26953125 C-249.5052959 -22.36359738 -232.79125926 -31.30802361 -215 -38 C-214.35933594 -38.24298828 -213.71867188 -38.48597656 -213.05859375 -38.73632812 C-141.18529642 -65.51714274 -58.0700795 -49.54941786 0 0 Z M-262 1 C-262.56589844 1.43747559 -263.13179688 1.87495117 -263.71484375 2.32568359 C-283.53526378 17.89802199 -299.61886729 36.75041225 -313 58 C-313.47800049 58.75385986 -313.95600098 59.50771973 -314.44848633 60.28442383 C-318.21652302 66.37384564 -321.25743568 72.60440112 -324.0625 79.1875 C-324.71255005 80.70512939 -324.71255005 80.70512939 -325.37573242 82.25341797 C-330.11037573 93.442123 -333.77775685 104.64734424 -336.6875 116.4375 C-336.89028564 117.24719238 -337.09307129 118.05688477 -337.30200195 118.89111328 C-340.75102569 133.51958221 -341.41069254 148.10284187 -341.375 163.0625 C-341.37368576 164.41503372 -341.37368576 164.41503372 -341.37234497 165.79489136 C-341.32728747 179.88292197 -340.5600899 193.30715247 -337 207 C-336.75330566 207.97630371 -336.50661133 208.95260742 -336.25244141 209.95849609 C-329.8726879 234.69815409 -319.89805262 258.15427521 -305 279 C-304.31421875 279.97195313 -303.6284375 280.94390625 -302.921875 281.9453125 C-297.62835785 289.23817965 -291.80895401 295.86533054 -285.578125 302.35449219 C-284.53101943 303.44630709 -283.48927484 304.54329033 -282.453125 305.64550781 C-245.82117888 344.56695056 -194.33005446 363.61648225 -141.7109375 365.2578125 C-125.73707652 365.58611279 -110.6032139 364.45725417 -95 361 C-93.90945313 360.75975098 -93.90945313 360.75975098 -92.796875 360.51464844 C-46.34960849 349.91549024 -4.18554161 322.34722871 24 284 C24.78117187 282.94039063 25.56234375 281.88078125 26.3671875 280.7890625 C38.54651036 264.94234646 38.54651036 264.94234646 45 247 C46.51430234 247.00170874 46.51430234 247.00170874 48.05919665 247.003452 C92.53992979 247.05344708 137.02066563 247.09973205 181.50141907 247.12702942 C182.51116546 247.12765068 182.51116546 247.12765068 183.54131076 247.12828448 C198.17013967 247.13726271 212.79896888 247.14557332 227.42779855 247.15319599 C234.60152397 247.15693808 241.77524931 247.16082773 248.94897461 247.16479492 C249.66285562 247.1651872 250.37673663 247.16557948 251.1122504 247.16598364 C274.26117816 247.17877315 297.41008398 247.20131115 320.55899843 247.22889166 C344.34275784 247.25717716 368.1265051 247.27565348 391.91028104 247.28174497 C395.26772556 247.28260947 398.62517004 247.28358638 401.98261452 247.28463173 C402.97382774 247.28493513 402.97382774 247.28493513 403.98506547 247.28524467 C415.29008045 247.28901226 426.59504043 247.30498783 437.9000384 247.3237494 C447.94058375 247.33956702 457.9810964 247.3444094 468.02165332 247.34050413 C473.82065401 247.33857638 479.61954444 247.34159959 485.4185257 247.35761642 C490.72277505 247.37216036 496.02683943 247.3729883 501.3310971 247.36269668 C503.25446103 247.36142375 505.17783627 247.36527579 507.10117777 247.37464955 C509.70756662 247.38661814 512.31328011 247.3802433 514.91965771 247.36914349 C516.05027079 247.38096505 516.05027079 247.38096505 517.20372453 247.39302543 C524.94706568 247.31806286 528.81871067 243.47587126 534.1875 238.375 C535.34311092 237.28968371 536.49936688 236.20505385 537.65625 235.12109375 C538.2234375 234.5885498 538.790625 234.05600586 539.375 233.50732422 C541.60580148 231.43806816 543.89771569 229.44106127 546.1875 227.4375 C550.59637545 223.50023846 554.51055853 219.23523878 558.3828125 214.7734375 C560.40938218 212.62587859 562.39202448 210.75458635 564.62475586 208.84399414 C571.67977786 202.70987103 578.28075031 196.09799321 584.92944336 189.53051758 C586.60696851 187.87977274 588.2916154 186.23623529 589.9831543 184.59985352 C592.44201302 182.21999809 594.87720108 179.81802728 597.30859375 177.41015625 C598.44439125 176.32384666 598.44439125 176.32384666 599.60313416 175.21559143 C604.72636953 170.07573962 604.72636953 170.07573962 606.3034668 163.22696114 C605.21962562 155.27329962 599.62495566 148.89291512 594.10180664 143.48657227 C593.09104317 142.46748528 593.09104317 142.46748528 592.05986023 141.42781067 C589.85533804 139.21158983 587.63345336 137.01377862 585.41015625 134.81640625 C583.8613822 133.2693454 582.31349898 131.72139228 580.76646423 130.17259216 C577.53378308 126.9415585 574.29280015 123.71917585 571.04516602 120.50317383 C566.88769252 116.38547501 562.74820604 112.25024365 558.61432743 108.10887241 C555.42452515 104.91599867 552.22717443 101.73077511 549.02731133 98.54798698 C547.4980099 97.02570239 545.97064148 95.50147327 544.44526863 93.97525215 C542.31338424 91.84516918 540.17196606 89.72516135 538.02758789 87.60766602 C537.08990067 86.66558289 537.08990067 86.66558289 536.13327026 85.70446777 C530.38177534 80.06361156 525.59212967 77.54791958 517.39331055 77.56420898 C516.65586609 77.55413315 515.91842163 77.54405731 515.15863037 77.53367615 C512.73450316 77.50531291 510.3110013 77.49932545 507.88671875 77.49609375 C506.19049327 77.48644383 504.49427026 77.4763507 502.79804993 77.46583557 C499.24657406 77.44790282 495.69531675 77.44231151 492.14379883 77.4440918 C487.61093971 77.44439633 483.07949398 77.40346149 478.54696941 77.35177517 C475.04400806 77.31828261 471.5413836 77.31233816 468.03827858 77.31392097 C466.36822455 77.31039968 464.69816003 77.29723619 463.028265 77.27392387 C453.61886469 77.15486874 446.18154692 77.1772836 439 84 C438.29593521 84.6372551 437.59187042 85.27451019 436.86647034 85.93107605 C434.60009676 88.05469836 432.4193491 90.24227031 430.24609375 92.4609375 C429.45977066 93.25150543 428.67344757 94.04207336 427.86329651 94.8565979 C425.38082749 97.35571036 422.90906066 99.86510375 420.4375 102.375 C418.74484028 104.08272502 417.05148728 105.78976317 415.35742188 107.49609375 C411.2302361 111.65615838 407.11175925 115.82469027 403 120 C399.79737748 118.59204132 397.69545427 116.92309857 395.26049805 114.42407227 C394.54262619 113.69313858 393.82475433 112.9622049 393.08512878 112.2091217 C392.31840347 111.4195256 391.55167816 110.6299295 390.76171875 109.81640625 C389.12072312 108.15011442 387.479438 106.48410765 385.83789062 104.81835938 C383.26007952 102.19095138 380.68554686 99.56049604 378.11645508 96.92456055 C375.63207625 94.37962782 373.13529123 91.84739451 370.63671875 89.31640625 C369.87606613 88.52883438 369.11541351 87.74126251 368.33171082 86.92982483 C363.56816253 82.12201907 359.60001368 78.82460702 352.77734375 77.6015625 C344.37690923 77.7085744 340.08761289 81.58109928 334.47665405 87.31170654 C333.66709259 88.15243713 332.85753113 88.99316772 332.0234375 89.859375 C330.28410153 91.63175321 328.54451064 93.40388127 326.8046875 95.17578125 C324.0769175 97.97211545 321.35333488 100.77235615 318.63476562 103.57763672 C316.00414777 106.28637768 313.35859166 108.97979954 310.7109375 111.671875 C309.89732758 112.52070251 309.08371765 113.36953003 308.24545288 114.24407959 C307.1037413 115.40088226 307.1037413 115.40088226 305.93896484 116.58105469 C305.27311371 117.2670575 304.60726257 117.9530603 303.92123413 118.65985107 C302 120 302 120 300.00099182 119.94255066 C297.49527928 118.76225548 295.98274624 117.32122514 294.04516602 115.33813477 C293.28079727 114.56385635 292.51642853 113.78957794 291.72889709 112.99183655 C290.50377663 111.72937355 290.50377663 111.72937355 289.25390625 110.44140625 C288.40577866 109.58191879 287.55765106 108.72243134 286.68382263 107.8368988 C283.05122789 104.15519209 279.4365055 100.45611286 275.82006836 96.75854492 C273.17912634 94.06341023 270.52929092 91.37725031 267.87890625 88.69140625 C266.65682213 87.4319796 266.65682213 87.4319796 265.41004944 86.14710999 C264.64252853 85.36967941 263.87500763 84.59224884 263.08422852 83.79125977 C262.41456558 83.10588638 261.74490265 82.420513 261.0549469 81.71437073 C257.58664173 78.82088435 254.03752078 77.70476864 249.5625 77.625 C248.84191406 77.59664063 248.12132812 77.56828125 247.37890625 77.5390625 C240.22979508 78.92427616 235.05944112 85.76197173 230.2421875 90.73828125 C228.54859992 92.46200409 226.85457664 94.18529893 225.16015625 95.90820312 C222.50400501 98.62035904 219.8519566 101.33623306 217.20751953 104.05981445 C214.64671463 106.69281805 212.07076696 109.31019918 209.4921875 111.92578125 C208.70045135 112.74959793 207.90871521 113.57341461 207.09298706 114.42219543 C206.35186676 115.17014877 205.61074646 115.91810211 204.84716797 116.6887207 C204.19908173 117.35394241 203.55099548 118.01916412 202.88327026 118.70454407 C201 120 201 120 199 119.92909241 C196.5289586 118.78117951 195.05790759 117.39705784 193.15283203 115.44580078 C192.41171173 114.69477081 191.67059143 113.94374084 190.90701294 113.16995239 C189.71940872 111.94500565 189.71940872 111.94500565 188.5078125 110.6953125 C187.68425262 109.86039276 186.86069275 109.02547302 186.01217651 108.16525269 C182.48617191 104.59017321 178.97801162 100.99776525 175.46826172 97.40673828 C172.90427784 94.78845491 170.33131729 92.17923292 167.7578125 89.5703125 C166.97012482 88.7577298 166.18243713 87.94514709 165.37088013 87.10794067 C164.62345551 86.35060638 163.87603088 85.59327209 163.10595703 84.81298828 C162.4562796 84.1476004 161.80660217 83.48221252 161.13723755 82.79666138 C155.14130639 77.75620252 149.91052746 77.57751046 142.40478516 77.65942383 C141.35052338 77.65898575 140.2962616 77.65854767 139.21005249 77.65809631 C135.73619874 77.66018112 132.26283162 77.68349831 128.7890625 77.70703125 C126.3762539 77.71262828 123.96344189 77.71689787 121.55062866 77.71989441 C115.20809474 77.73133465 108.86576774 77.76079509 102.52331543 77.79400635 C96.04812418 77.82472473 89.57289941 77.83840355 83.09765625 77.85351562 C70.39834935 77.8856653 57.69918569 77.93627323 45 78 C44.69908447 77.07058594 44.39816895 76.14117187 44.08813477 75.18359375 C35.50636256 50.07560418 13.43720589 24.40836602 -7 8 C-7.96679688 7.195625 -8.93359375 6.39125 -9.9296875 5.5625 C-30.13692793 -11.00995631 -53.08877933 -23.16981525 -78 -31 C-78.72880371 -31.23517334 -79.45760742 -31.47034668 -80.20849609 -31.71264648 C-141.86297152 -51.02298444 -210.8983479 -38.51309895 -262 1 Z " fill="#FAF9F4" transform="translate(368,143)"/>
<path d="M0 0 C-3.67832017 4.52615993 -7.41086363 8.39424999 -12 12 C-12.66 11.67 -13.32 11.34 -14 11 C-16.65179597 10.89822488 -19.27759353 10.85787552 -21.929842 10.8613348 C-22.76282954 10.85849258 -23.59581708 10.85565036 -24.45404667 10.85272202 C-27.27561809 10.84432825 -30.09714871 10.84310316 -32.91873169 10.84178162 C-34.94986058 10.83721945 -36.98098853 10.83221994 -39.01211536 10.82681805 C-44.61716891 10.81318821 -50.22221637 10.80580462 -55.82728219 10.79939139 C-61.8627572 10.79140865 -67.89821945 10.7777036 -73.9336853 10.76467896 C-84.39840408 10.74288594 -94.86312477 10.7247172 -105.32785416 10.70907402 C-116.30634166 10.69264775 -127.28482254 10.67417122 -138.26330185 10.65294075 C-138.94524699 10.65162314 -139.62719212 10.65030554 -140.32980226 10.648948 C-143.7928865 10.64224616 -147.25597066 10.63550753 -150.7190548 10.62875474 C-175.26468246 10.58095858 -199.81031629 10.53778308 -224.35595703 10.49731445 C-248.20557098 10.45798282 -272.05517981 10.41656474 -295.90478516 10.37231445 C-296.63959761 10.37095192 -297.37441007 10.36958939 -298.13148957 10.36818558 C-305.51060316 10.35450051 -312.88971668 10.34077294 -320.26883014 10.32701423 C-335.30168668 10.29898573 -350.33454374 10.27124092 -365.36740112 10.2436676 C-366.05862709 10.2423994 -366.74985306 10.2411312 -367.46202528 10.23982458 C-413.64134189 10.15513146 -459.82067011 10.07707297 -506 10 C-505.34 7.03 -504.68 4.06 -504 1 C-456.49745184 0.90463303 -408.99490366 0.80927801 -361.49235535 0.71398926 C-360.43820222 0.71187465 -360.43820222 0.71187465 -359.36275308 0.70971733 C-344.09062665 0.67908187 -328.81850021 0.64844865 -313.54637377 0.61781773 C-306.05720166 0.60279687 -298.56802954 0.58777552 -291.07885742 0.57275391 C-290.33358471 0.57125906 -289.588312 0.56976422 -288.82045527 0.56822408 C-264.65300121 0.51974959 -240.48554721 0.47124254 -216.31809325 0.42271865 C-191.48814919 0.37286477 -166.65820506 0.32304365 -141.82826086 0.2732639 C-138.32324311 0.26623693 -134.81822537 0.25920958 -131.31320763 0.25218201 C-130.27842516 0.25010728 -130.27842516 0.25010728 -129.22273801 0.24799064 C-118.1066405 0.22570204 -106.99054307 0.20337879 -95.87444566 0.18104266 C-84.70589087 0.15860186 -73.53733601 0.13619818 -62.36878107 0.11383021 C-56.31463998 0.1017041 -50.26049892 0.08956145 -44.20635796 0.07737541 C-38.66901429 0.06622996 -33.13167053 0.0551303 -27.5943267 0.0440678 C-25.58617561 0.0400477 -23.57802456 0.03601048 -21.56987355 0.03195482 C-18.84935148 0.02646292 -16.1288293 0.02103224 -13.40830708 0.01561737 C-12.22715712 0.01321085 -12.22715712 0.01321085 -11.02214554 0.01075572 C-7.34809108 0.00350676 -3.67406195 -0.00181627 0 0 Z " fill="#8FA955" transform="translate(923,361)"/>
<path d="M0 0 C170.94 0 341.88 0 518 0 C512 7 512 7 509 9 C509 8.01 509 7.02 509 6 C341.03 6 173.06 6 0 6 C0 4.02 0 2.04 0 0 Z " fill="#8FA955" transform="translate(424,342)"/>
<path d="M0 0 C6.6 0 13.2 0 20 0 C20 1.32 20 2.64 20 4 C22.97 4 25.94 4 29 4 C29 22.48 29 40.96 29 60 C7 64 7 64 3 64 C3 74.56 3 85.12 3 96 C1.35 96 -0.3 96 -2 96 C-2 85.11 -2 74.22 -2 63 C-2.66 63 -3.32 63 -4 63 C-4 73.89 -4 84.78 -4 96 C-5.98 96 -7.96 96 -10 96 C-10 65.64 -10 35.28 -10 4 C-6.7 4 -3.4 4 0 4 C0 2.68 0 1.36 0 0 Z " fill="#B2B2B2" transform="translate(254,251)"/>
<path d="M0 0 C0 20.13 0 40.26 0 61 C-1.65 61 -3.3 61 -5 61 C-5 60.01 -5 59.02 -5 58 C-5.66 58 -6.32 58 -7 58 C-7 57.01 -7 56.02 -7 55 C-8.32 55 -9.64 55 -11 55 C-11 53.35 -11 51.7 -11 50 C-12.65 50 -14.3 50 -16 50 C-16 51.65 -16 53.3 -16 55 C-18.64 55 -21.28 55 -24 55 C-24 56.32 -24 57.64 -24 59 C-28.455 59.495 -28.455 59.495 -33 60 C-33 78.81 -33 97.62 -33 117 C-35.31 117 -37.62 117 -40 117 C-40 80.7 -40 44.4 -40 7 C-5 0 -5 0 0 0 Z " fill="#4E4E4E" transform="translate(297,308)"/>
<path d="M0 0 C0.66 0 1.32 0 2 0 C2 13.2 2 26.4 2 40 C3.98 40 5.96 40 8 40 C8.33 56.5 8.66 73 9 90 C6.03 90 3.06 90 0 90 C0 103.86 0 117.72 0 132 C-3.63 132 -7.26 132 -11 132 C-11 114.84 -11 97.68 -11 80 C-15.29 80 -19.58 80 -24 80 C-24 76.37 -24 72.74 -24 69 C-26.97 69 -29.94 69 -33 69 C-33 59.43 -33 49.86 -33 40 C-30.36 40 -27.72 40 -25 40 C-25 36.04 -25 32.08 -25 28 C-19.39 28 -13.78 28 -8 28 C-8 31.96 -8 35.92 -8 40 C-5.36 40 -2.72 40 0 40 C0 26.8 0 13.6 0 0 Z " fill="#4C4C4C" transform="translate(347,262)"/>
<path d="M0 0 C2.64 0 5.28 0 8 0 C8 0.66 8 1.32 8 2 C15.26 2 22.52 2 30 2 C30 11.24 30 20.48 30 30 C27.69 30 25.38 30 23 30 C23 34.29 23 38.58 23 43 C20.69 43 18.38 43 16 43 C16 52.57 16 62.14 16 72 C14.02 72 12.04 72 10 72 C10 75.3 10 78.6 10 82 C7.69 82 5.38 82 3 82 C3 113.68 3 145.36 3 178 C2.01 178 1.02 178 0 178 C-0.17595311 167.93764614 -0.34186487 157.87514802 -0.5 147.8125 C-0.51187725 147.05706406 -0.5237545 146.30162811 -0.53599167 145.52330017 C-0.90146739 122.09807268 -1.09259871 98.67808563 -1.0625 75.25 C-1.06164398 74.57878239 -1.06078796 73.90756477 -1.05990601 73.21600723 C-1.04881958 65.14397568 -1.02923096 57.07198583 -1 49 C-2.98 49 -4.96 49 -7 49 C-7 33.49 -7 17.98 -7 2 C-4.69 2 -2.38 2 0 2 C0 1.34 0 0.68 0 0 Z " fill="#B2B2B2" transform="translate(298,259)"/>
<path d="M0 0 C9.9 0 19.8 0 30 0 C30 3.96 30 7.92 30 12 C28.35 12 26.7 12 25 12 C25 40.05 25 68.1 25 97 C22.69 97 20.38 97 18 97 C18 82.81 18 68.62 18 54 C15.03 54 12.06 54 9 54 C9 51.69 9 49.38 9 47 C3.06 47 -2.88 47 -9 47 C-9 34.46 -9 21.92 -9 9 C-6.03 9 -3.06 9 0 9 C0 6.03 0 3.06 0 0 Z " fill="#4C4C4C" transform="translate(108,266)"/>
<path d="M0 0 C1.98 0 3.96 0 6 0 C6 2.31 6 4.62 6 7 C7.32 7 8.64 7 10 7 C10 8.98 10 10.96 10 13 C10.99 13 11.98 13 13 13 C13 13.99 13 14.98 13 16 C15.31 16 17.62 16 20 16 C20 28.21 20 40.42 20 53 C15.38 53 10.76 53 6 53 C6 56.63 6 60.26 6 64 C4.02 64 2.04 64 0 64 C0 86.44 0 108.88 0 132 C-2.31 132 -4.62 132 -7 132 C-7 97.02 -7 62.04 -7 26 C-8.32 26 -9.64 26 -11 26 C-11 21.38 -11 16.76 -11 12 C-10.34 12 -9.68 12 -9 12 C-9 10.35 -9 8.7 -9 7 C-6.03 7 -3.06 7 0 7 C0 4.69 0 2.38 0 0 Z " fill="#4D4D4C" transform="translate(222,283)"/>
<path d="M0 0 C0.66 0 1.32 0 2 0 C10.04986117 27.57505636 12.17520088 60.47439736 3 88 C1.29301718 88.34018163 -0.41567133 88.6718089 -2.125 89 C-3.07632812 89.185625 -4.02765625 89.37125 -5.0078125 89.5625 C-8 90 -8 90 -14 90 C-14 68.55 -14 47.1 -14 25 C-13.34 25 -12.68 25 -12 25 C-12 24.34 -12 23.68 -12 23 C-9.525 23.99 -9.525 23.99 -7 25 C-6.91363281 24.45214844 -6.82726562 23.90429688 -6.73828125 23.33984375 C-5.30906621 15.27592405 -2.69326688 7.70973342 0 0 Z " fill="#B2B2B1" transform="translate(377,259)"/>
<path d="M0 0 C4.62 0 9.24 0 14 0 C14 2.97 14 5.94 14 9 C20.93 9 27.86 9 35 9 C35 10.65 35 12.3 35 14 C33.02 12.68 31.04 11.36 29 10 C29 10.66 29 11.32 29 12 C27.70664123 12.98401328 26.38979388 13.93726337 25.0625 14.875 C22.19994336 17.25289096 21.1280177 18.46869337 20.24609375 22.12890625 C20.02471486 25.10522247 19.92163613 28.01727514 20 31 C18.68 31 17.36 31 16 31 C16 36.61 16 42.22 16 48 C14.68 48 13.36 48 12 48 C12 79.02 12 110.04 12 142 C9.69 142 7.38 142 5 142 C5 100.75 5 59.5 5 17 C3.35 17 1.7 17 0 17 C0 11.39 0 5.78 0 0 Z " fill="#AFAFAE" transform="translate(167,261)"/>
<path d="M0 0 C0.33 7.59 0.66 15.18 1 23 C2.98 21.68 4.96 20.36 7 19 C12.82348307 18.13726177 17.32870629 19.56005149 22 23 C26.17473889 27.19490671 27.32583523 31.27596659 27.5 37.125 C27.20914697 43.37440966 25.71620234 46.95911073 21.6875 51.75 C17.78136343 55.02025388 14.57109222 55.82860812 9.5625 56.375 C6.15047205 56.01583916 5.07028763 55.61924175 2.3125 53.875 C1.219375 53.25625 0.12625 52.6375 -1 52 C-3.23377831 52.57518232 -3.23377831 52.57518232 -5 54 C-6.98 54.495 -6.98 54.495 -9 55 C-9.33 39.16 -9.66 23.32 -10 7 C-12.475 6.01 -12.475 6.01 -15 5 C-14.67 4.01 -14.34 3.02 -14 2 C-12.04200486 1.66468585 -10.08359226 1.33180857 -8.125 1 C-6.48917969 0.7215625 -6.48917969 0.7215625 -4.8203125 0.4375 C-2 0 -2 0 0 0 Z " fill="#FBFCF9" transform="translate(595,273)"/>
<path d="M0 0 C1.65 0 3.3 0 5 0 C5 2.64 5 5.28 5 8 C5.66 8 6.32 8 7 8 C7 10.97 7 13.94 7 17 C8.32 17.33 9.64 17.66 11 18 C11 20.31 11 22.62 11 25 C12.65 25 14.3 25 16 25 C16 30.61 16 36.22 16 42 C12.04 42 8.08 42 4 42 C4 44.64 4 47.28 4 50 C0.7 50 -2.6 50 -6 50 C-6 62.54 -6 75.08 -6 88 C-7.65 88 -9.3 88 -11 88 C-11 67.21 -11 46.42 -11 25 C-9.02 25 -7.04 25 -5 25 C-5 22.69 -5 20.38 -5 18 C-4.01 18 -3.02 18 -2 18 C-2 14.7 -2 11.4 -2 8 C-1.34 8 -0.68 8 0 8 C0 5.36 0 2.72 0 0 Z " fill="#B2B2B1" transform="translate(104,224)"/>
<path d="M0 0 C7.92 0 15.84 0 24 0 C24 0.99 24 1.98 24 3 C23.030625 3.28875 22.06125 3.5775 21.0625 3.875 C17.89335797 4.64214682 17.89335797 4.64214682 17 7 C16.76512418 11.04947264 16.77156562 15.10073684 16.75976562 19.15649414 C16.75012072 21.16239359 16.71894617 23.16815199 16.6875 25.17382812 C16.59368284 34.51910389 16.59368284 34.51910389 20 43 C23.39642307 46.00826044 26.49040327 46.49042909 31.0078125 46.27734375 C34.2682013 45.82344649 36.32991625 44.9249441 39 43 C43.11755209 36.24173755 42.44316329 28.95245225 42.375 21.25 C42.38569807 19.91014771 42.39740837 18.5703031 42.41015625 17.23046875 C42.40435547 15.32974609 42.40435547 15.32974609 42.3984375 13.390625 C42.39505371 12.23594727 42.39166992 11.08126953 42.38818359 9.89160156 C42.23979281 7.00651313 42.23979281 7.00651313 40.61181641 5.14355469 C38.76600322 3.8339835 37.21780858 3.38238079 35 3 C35 2.01 35 1.02 35 0 C41.93 0 48.86 0 56 0 C56 0.99 56 1.98 56 3 C55.195625 3.12375 54.39125 3.2475 53.5625 3.375 C52.716875 3.58125 51.87125 3.7875 51 4 C49.58590203 6.82819594 49.85413994 9.24622808 49.82421875 12.40625 C49.80037109 13.70820313 49.77652344 15.01015625 49.75195312 16.3515625 C49.71712729 18.41383656 49.68766104 20.47555636 49.67407227 22.53808594 C49.60843469 30.8791069 49.44044303 38.69071023 45 46 C39.08819191 50.94661493 34.03665741 51.22930199 26.6875 51.3125 C25.42389648 51.35600586 25.42389648 51.35600586 24.13476562 51.40039062 C18.58256965 51.4568242 15.3069141 50.83614357 11 47 C7.24196552 42.34705178 6.41049367 38.66257733 6.42578125 32.828125 C6.40453438 31.68268219 6.40453438 31.68268219 6.38285828 30.51409912 C6.34117163 28.09258673 6.32575374 25.67181972 6.3125 23.25 C6.28342853 20.81424312 6.24891681 18.37867315 6.21000671 15.9430542 C6.18754184 14.43178796 6.17170868 12.92040562 6.16316223 11.40899658 C6.1918258 7.57775017 6.1918258 7.57775017 5 4 C2.47266765 3.34444881 2.47266765 3.34444881 0 3 C0 2.01 0 1.02 0 0 Z " fill="#FAFBF8" transform="translate(490,277)"/>
<path d="M0 0 C4.50504898 2.25252449 6.94248737 4.43034023 9 9 C9.50542399 12.76496145 9.6025212 16.5175898 9.6875 20.3125 C9.72166016 21.33923828 9.75582031 22.36597656 9.79101562 23.42382812 C9.87323409 25.94910963 9.94246936 28.4740554 10 31 C12.475 31.99 12.475 31.99 15 33 C15 33.99 15 34.98 15 36 C8.07 36 1.14 36 -6 36 C-6 35.01 -6 34.02 -6 33 C-4.35 32.34 -2.7 31.68 -1 31 C-0.97091643 27.58335127 -0.95317309 24.1667345 -0.9375 20.75 C-0.92912109 19.78191406 -0.92074219 18.81382812 -0.91210938 17.81640625 C-0.90888672 16.88183594 -0.90566406 15.94726562 -0.90234375 14.984375 C-0.89710693 14.12553711 -0.89187012 13.26669922 -0.88647461 12.38183594 C-0.99460014 10.11329256 -1.36417577 8.17368285 -2 6 C-3.43583001 5.89163547 -4.8740202 5.81423833 -6.3125 5.75 C-7.11300781 5.70359375 -7.91351562 5.6571875 -8.73828125 5.609375 C-11.12170092 5.7900318 -11.12170092 5.7900318 -12.62304688 7.69921875 C-14.26828966 10.4482911 -14.348473 12.02088112 -14.29296875 15.203125 C-14.28330078 16.1828125 -14.27363281 17.1625 -14.26367188 18.171875 C-14.23853516 19.18765625 -14.21339844 20.2034375 -14.1875 21.25 C-14.17396484 22.28125 -14.16042969 23.3125 -14.14648438 24.375 C-14.11117607 26.91719792 -14.06186036 29.45833223 -14 32 C-12.68 32.33 -11.36 32.66 -10 33 C-10 33.99 -10 34.98 -10 36 C-16.6 36 -23.2 36 -30 36 C-30 35.01 -30 34.02 -30 33 C-28.68 33 -27.36 33 -26 33 C-26 24.42 -26 15.84 -26 7 C-28.475 6.01 -28.475 6.01 -31 5 C-31 4.34 -31 3.68 -31 3 C-26.46298506 1.54815522 -22.81938524 0.76490804 -18 1 C-18 2.65 -18 4.3 -18 6 C-17.18208984 5.3503125 -17.18208984 5.3503125 -16.34765625 4.6875 C-10.94452798 0.69749758 -6.76194753 -1.48992064 0 0 Z " fill="#FAFBF8" transform="translate(698,292)"/>
<path d="M0 0 C4.58485994 2.29242997 7.9905126 5.23707245 10 10 C10.61833761 13.95487569 10.69584269 17.87720604 10.75 21.875 C10.77964844 22.94492187 10.80929687 24.01484375 10.83984375 25.1171875 C10.910228 27.74486608 10.96307994 30.37167364 11 33 C12.32 33 13.64 33 15 33 C15 33.99 15 34.98 15 36 C8.4 36 1.8 36 -5 36 C-5 35.01 -5 34.02 -5 33 C-4.0409375 32.814375 -4.0409375 32.814375 -3.0625 32.625 C-2.381875 32.41875 -1.70125 32.2125 -1 32 C0.7482484 28.5035032 0.22708836 24.53951945 0.25 20.6875 C0.270625 19.83220703 0.29125 18.97691406 0.3125 18.09570312 C0.34209083 13.32048292 0.32202031 9.75632113 -3 6 C-6.55695956 5.49186292 -8.85987777 5.20191444 -11.875 7.3125 C-13.81289793 10.21934689 -14.1275397 12.76786087 -14.1328125 16.16015625 C-14.13410156 16.95357422 -14.13539063 17.74699219 -14.13671875 18.56445312 C-14.13285156 19.38880859 -14.12898437 20.21316406 -14.125 21.0625 C-14.12886719 21.89072266 -14.13273438 22.71894531 -14.13671875 23.57226562 C-14.13478516 24.76045898 -14.13478516 24.76045898 -14.1328125 25.97265625 C-14.13168457 26.69718994 -14.13055664 27.42172363 -14.12939453 28.16821289 C-14.11061361 30.09800455 -14.11061361 30.09800455 -13 32 C-10.97536745 32.65213292 -10.97536745 32.65213292 -9 33 C-9 33.99 -9 34.98 -9 36 C-15.93 36 -22.86 36 -30 36 C-30 35.01 -30 34.02 -30 33 C-28.35 32.34 -26.7 31.68 -25 31 C-25 23.08 -25 15.16 -25 7 C-27.475 6.01 -27.475 6.01 -30 5 C-30 4.34 -30 3.68 -30 3 C-25.46298506 1.54815522 -21.81938524 0.76490804 -17 1 C-17 2.65 -17 4.3 -17 6 C-16.34 6 -15.68 6 -15 6 C-14.67 5.01 -14.34 4.02 -14 3 C-9.45165347 0.00474741 -5.31580766 -0.94621376 0 0 Z " fill="#FCFCFA" transform="translate(838,292)"/>
<path d="M0 0 C3.10077301 1.77187029 4.26603902 2.74401138 6.0625 5.75 C6.49487305 8.40722656 6.49487305 8.40722656 6.57421875 11.390625 C6.62739258 12.99550781 6.62739258 12.99550781 6.68164062 14.6328125 C6.70419922 15.74398438 6.72675781 16.85515625 6.75 18 C6.80124023 19.68996094 6.80124023 19.68996094 6.85351562 21.4140625 C6.93593014 24.19260901 7.00510298 26.97084252 7.0625 29.75 C8.3825 30.08 9.7025 30.41 11.0625 30.75 C10.5 32.6875 10.5 32.6875 9.0625 34.75 C5.6875 35.75 5.6875 35.75 2.0625 35.75 C-0.35031883 33.90863826 -1.58900913 32.44698174 -2.9375 29.75 C-3.72125 30.575 -4.505 31.4 -5.3125 32.25 C-8.90990272 35.25640085 -12.07695141 35.42613079 -16.65625 35.1640625 C-18.9375 34.75 -18.9375 34.75 -21.5625 33.1875 C-23.50527996 29.74348099 -23.55243641 27.64459726 -22.9375 23.75 C-19.51559751 19.68412324 -16.07978957 17.56877544 -11.25 15.4375 C-10.11175781 14.92574219 -8.97351563 14.41398437 -7.80078125 13.88671875 C-4.9375 12.75 -4.9375 12.75 -2.9375 12.75 C-3.5975 9.78 -4.2575 6.81 -4.9375 3.75 C-7.76823436 3.24830585 -7.76823436 3.24830585 -10.9375 3.75 C-11.9275 5.235 -11.9275 5.235 -12.9375 6.75 C-13.9275 8.235 -13.9275 8.235 -14.9375 9.75 C-18.1875 10.125 -18.1875 10.125 -20.9375 9.75 C-21.2675 7.77 -21.5975 5.79 -21.9375 3.75 C-15.44981512 -1.68562787 -8.10227717 -3.17871855 0 0 Z " fill="#FAFBF7" transform="translate(651.9375,293.25)"/>
<path d="M0 0 C7.59 0 15.18 0 23 0 C23 0.99 23 1.98 23 3 C21.02 3.66 19.04 4.32 17 5 C16.97529065 10.21443333 16.95713556 15.42883261 16.94506836 20.64331055 C16.940038 22.41740513 16.93321301 24.19149556 16.92456055 25.96557617 C16.91243826 28.51482161 16.90675874 31.06401226 16.90234375 33.61328125 C16.89718246 34.40712723 16.89202118 35.20097321 16.88670349 36.01887512 C16.88637123 39.27656286 16.96227174 41.88681521 18 45 C20.98715138 46.49357569 24.03887936 46.22503435 27.3125 46.25 C28.62863281 46.27578125 29.94476562 46.3015625 31.30078125 46.328125 C35.17198677 45.98474457 36.99710747 45.41441359 40 43 C41.19873855 41.23419884 41.19873855 41.23419884 41.8125 39.3125 C42.204375 38.219375 42.59625 37.12625 43 36 C43.99 36 44.98 36 46 36 C45.67 40.95 45.34 45.9 45 51 C29.82 51 14.64 51 -1 51 C-1 50.01 -1 49.02 -1 48 C0.98 47.34 2.96 46.68 5 46 C5 32.47 5 18.94 5 5 C2.525 4.01 2.525 4.01 0 3 C0 2.01 0 1.02 0 0 Z " fill="#FBFCF9" transform="translate(718,277)"/>
<path d="M0 0 C0 1.32 0 2.64 0 4 C0.763125 3.505 1.52625 3.01 2.3125 2.5 C7.78246295 0.27493033 13.48174722 -0.18335446 19.16015625 1.7265625 C23.1309181 3.80046359 25.2144948 5.96589028 27 10 C27.50323451 13.7653124 27.60251911 17.51749641 27.6875 21.3125 C27.72166016 22.33923828 27.75582031 23.36597656 27.79101562 24.42382812 C27.87323409 26.94910963 27.94246936 29.4740554 28 32 C29.65 32.66 31.3 33.32 33 34 C33 35.98 33 37.96 33 40 C16.83 40 0.66 40 -16 40 C-16 38.02 -16 36.04 -16 34 C-13.03 33.505 -13.03 33.505 -10 33 C-10 25.08 -10 17.16 -10 9 C-11.98 9 -13.96 9 -16 9 C-16 7.02 -16 5.04 -16 3 C-13.70887834 2.49750857 -11.41708499 1.99807883 -9.125 1.5 C-7.84882812 1.2215625 -6.57265625 0.943125 -5.2578125 0.65625 C-2 0 -2 0 0 0 Z M1 6 C1 6.66 1 7.32 1 8 C0.34 8 -0.32 8 -1 8 C-1 6.35 -1 4.7 -1 3 C-2.79206547 3.14084796 -4.58364917 3.28783701 -6.375 3.4375 C-7.87160156 3.55931641 -7.87160156 3.55931641 -9.3984375 3.68359375 C-11.97927613 3.84965626 -11.97927613 3.84965626 -14 5 C-14 5.66 -14 6.32 -14 7 C-11.525 7.99 -11.525 7.99 -9 9 C-9 16.92 -9 24.84 -9 33 C-10.65 33.66 -12.3 34.32 -14 35 C-14 35.99 -14 36.98 -14 38 C-7.07 38 -0.14 38 7 38 C7 37.01 7 36.02 7 35 C6.0409375 34.814375 6.0409375 34.814375 5.0625 34.625 C4.381875 34.41875 3.70125 34.2125 3 34 C1.31843045 30.63686091 1.77325623 26.88233413 1.75 23.1875 C1.729375 22.37990234 1.70875 21.57230469 1.6875 20.74023438 C1.65623059 15.96774005 1.95719201 12.91108401 5 9 C6 8 6 8 9.375 7.625 C13 8 13 8 14.7109375 9.91796875 C16.51392509 14.22874817 16.36142759 18.06673704 16.25 22.6875 C16.24484375 23.55439453 16.2396875 24.42128906 16.234375 25.31445312 C16.15499052 31.69001895 16.15499052 31.69001895 15 34 C12.9375 34.625 12.9375 34.625 11 35 C11 35.99 11 36.98 11 38 C17.6 38 24.2 38 31 38 C31 37.01 31 36.02 31 35 C29.68 35 28.36 35 27 35 C26.98598145 34.00202393 26.98598145 34.00202393 26.97167969 32.98388672 C26.91773981 29.94685981 26.83413938 26.91133421 26.75 23.875 C26.73582031 22.82828125 26.72164062 21.7815625 26.70703125 20.703125 C26.5115176 14.52489376 26.14457574 10.69312253 22 6 C18.16077232 2.68430337 15.18709443 1.35551008 10.03515625 1.59375 C6.51149243 2.29713011 3.97201356 4.01865763 1 6 Z " fill="#8EA75B" transform="translate(822,290)"/>
<path d="M0 0 C0 0.99 0 1.98 0 3 C0.763125 2.505 1.52625 2.01 2.3125 1.5 C8.34778707 -0.95503203 14.25835953 -0.89726415 20.4375 1.125 C24.39926021 4.02384894 26.46015582 7.38046747 28 12 C28.1464714 13.55266653 28.24694074 15.10995662 28.31640625 16.66796875 C28.35830078 17.56064453 28.40019531 18.45332031 28.44335938 19.37304688 C28.48267578 20.30181641 28.52199219 21.23058594 28.5625 22.1875 C28.60568359 23.12787109 28.64886719 24.06824219 28.69335938 25.03710938 C28.79938665 27.35792854 28.90145029 29.67885325 29 32 C30.32 32.33 31.64 32.66 33 33 C33 34.98 33 36.96 33 39 C17.16 39 1.32 39 -15 39 C-15 37.02 -15 35.04 -15 33 C-13.35 32.34 -11.7 31.68 -10 31 C-10 23.74 -10 16.48 -10 9 C-12.97 8.505 -12.97 8.505 -16 8 C-16 6.02 -16 4.04 -16 2 C-10.54538831 0.61470179 -5.63281599 -0.2396943 0 0 Z M2 5 C1.01 5.66 0.02 6.32 -1 7 C-1 5.35 -1 3.7 -1 2 C-2.79206547 2.14084796 -4.58364917 2.28783701 -6.375 2.4375 C-7.87160156 2.55931641 -7.87160156 2.55931641 -9.3984375 2.68359375 C-11.97927613 2.84965626 -11.97927613 2.84965626 -14 4 C-14 4.66 -14 5.32 -14 6 C-11.525 6.99 -11.525 6.99 -9 8 C-9 16.58 -9 25.16 -9 34 C-10.32 34 -11.64 34 -13 34 C-13 34.99 -13 35.98 -13 37 C-6.4 37 0.2 37 7 37 C7 36.01 7 35.02 7 34 C5.68 33.67 4.36 33.34 3 33 C2.91279081 29.41682042 2.85953888 25.83391433 2.8125 22.25 C2.78736328 21.23421875 2.76222656 20.2184375 2.73632812 19.171875 C2.72666016 18.1921875 2.71699219 17.2125 2.70703125 16.203125 C2.6913208 15.30239258 2.67561035 14.40166016 2.65942383 13.47363281 C3.06801437 10.50600604 3.94565856 9.15075457 6 7 C8.26171875 6.609375 8.26171875 6.609375 10.6875 6.75 C11.49574219 6.78609375 12.30398438 6.8221875 13.13671875 6.859375 C14.05904297 6.92898438 14.05904297 6.92898438 15 7 C15.89749822 10.0682638 16.11711768 12.79269976 16.09765625 15.984375 C16.09443359 16.91894531 16.09121094 17.85351562 16.08789062 18.81640625 C16.07951172 19.78449219 16.07113281 20.75257813 16.0625 21.75 C16.05798828 22.73355469 16.05347656 23.71710938 16.04882812 24.73046875 C16.03706483 27.15370791 16.02062684 29.57682273 16 32 C14.35 32.66 12.7 33.32 11 34 C11 34.99 11 35.98 11 37 C17.93 37 24.86 37 32 37 C32 36.01 32 35.02 32 34 C30.35 33.34 28.7 32.68 27 32 C26.9906543 31.36497559 26.98130859 30.72995117 26.97167969 30.07568359 C26.91771267 27.174692 26.83411873 24.27526756 26.75 21.375 C26.73582031 20.37597656 26.72164062 19.37695312 26.70703125 18.34765625 C26.50627456 12.28480407 26.02117389 8.62998713 22 4 C18.30818384 0.83558615 14.92216546 0.48790159 10.21484375 0.63671875 C6.81408552 1.19451507 4.63849436 2.864076 2 5 Z " fill="#96AE5F" transform="translate(681,291)"/>
<path d="M0 0 C3.06847861 2.06943907 4.82839617 3.59482029 6.6875 6.8125 C6.6875 9.4525 6.6875 12.0925 6.6875 14.8125 C-0.9025 14.8125 -8.4925 14.8125 -16.3125 14.8125 C-15.15639417 24.7113466 -15.15639417 24.7113466 -12.75 28.5 C-8.99393602 30.52249599 -5.4819903 30.4602601 -1.3125 29.8125 C1.55896994 28.44252843 1.55896994 28.44252843 3.6875 26.8125 C4.3475 26.8125 5.0075 26.8125 5.6875 26.8125 C5.5625 28.5625 5.5625 28.5625 4.6875 30.8125 C-0.61648369 34.93782064 -4.52481767 36.20195472 -11.2265625 36.08984375 C-16.32319654 35.4122014 -19.92406786 32.50262983 -23.1875 28.6875 C-27.17140907 23.29750538 -27.03771398 18.38887224 -26.3125 11.8125 C-24.18579895 6.11074114 -20.65047315 2.71357237 -15.3125 -0.1875 C-10.1060264 -1.9229912 -5.16315911 -1.85094383 0 0 Z " fill="#F9FAF6" transform="translate(795.3125,293.1875)"/>
<path d="M0 0 C8.91 0 17.82 0 27 0 C27 2.31 27 4.62 27 7 C24.69 7.33 22.38 7.66 20 8 C19.9256161 12.46570449 19.87128829 16.93107684 19.83520508 21.3972168 C19.82015647 22.91518438 19.79971262 24.43310876 19.77368164 25.95092773 C19.73712347 28.13796677 19.72023477 30.32442896 19.70703125 32.51171875 C19.6913208 33.82615967 19.67561035 35.14060059 19.65942383 36.49487305 C20.01991222 40.20493176 20.74995285 42.06683566 23 45 C26.92767594 46.96383797 31.71773499 46.47510337 36 46 C38.65563802 44.1031157 39.57242527 42.85514945 41 40 C41.08649451 37.51900266 41.11565054 35.06655072 41.09765625 32.5859375 C41.0962413 31.85629791 41.09482635 31.12665833 41.09336853 30.37490845 C41.08776531 28.04156415 41.07521235 25.70831536 41.0625 23.375 C41.05748541 21.79427222 41.05292243 20.21354293 41.04882812 18.6328125 C41.03779484 14.75517146 41.02052811 10.87760193 41 7 C38.69 7 36.38 7 34 7 C34 4.69 34 2.38 34 0 C42.25 0 50.5 0 59 0 C59 2.31 59 4.62 59 7 C58.030625 7.12375 57.06125 7.2475 56.0625 7.375 C55.051875 7.58125 54.04125 7.7875 53 8 C51.58405432 10.83189137 51.87230656 13.24232785 51.859375 16.40625 C51.84003906 17.70820313 51.82070313 19.01015625 51.80078125 20.3515625 C51.77204134 22.41401609 51.75000589 24.47542039 51.74951172 26.53808594 C51.73459923 35.33645565 51.26146798 42.6790809 46 50 C40.05047859 55.08188287 34.04118425 55.2150367 26.5625 55.3125 C25.82451172 55.34150391 25.08652344 55.37050781 24.32617188 55.40039062 C19.06577322 55.46117745 16.19397344 54.43314767 12 51 C6.92579282 45.50294222 5.70789194 40.64144122 5.5859375 33.29296875 C5.56657135 32.56757401 5.5472052 31.84217926 5.5272522 31.09480286 C5.46777892 28.79248578 5.42120155 26.49011781 5.375 24.1875 C5.33679042 22.62042168 5.29773697 21.05336369 5.2578125 19.48632812 C5.16210437 15.65771848 5.07795552 11.82901058 5 8 C3.35 7.67 1.7 7.34 0 7 C0 4.69 0 2.38 0 0 Z M1 2 C1 2.99 1 3.98 1 5 C1.804375 5.12375 2.60875 5.2475 3.4375 5.375 C4.7059375 5.684375 4.7059375 5.684375 6 6 C7.53139293 9.06278587 7.15677305 12.2790926 7.17578125 15.640625 C7.19898856 17.20183626 7.22310626 18.76303421 7.24804688 20.32421875 C7.2830901 22.78410636 7.31246447 25.24350701 7.32592773 27.70361328 C7.34147067 30.07905148 7.38172617 32.45306622 7.42578125 34.828125 C7.42387283 35.55646545 7.42196442 36.28480591 7.41999817 37.03521729 C7.54161806 42.15209084 8.80222558 45.04409618 12 49 C16.96471542 53.36778482 21.06138319 53.61912485 27.375 53.5 C28.59316406 53.52320313 28.59316406 53.52320313 29.8359375 53.546875 C35.57359349 53.51009515 40.29674017 52.41903393 45 49 C49.43126624 43.49656227 50.11192421 37.95416659 50.28125 31.1171875 C50.29965942 30.46170929 50.31806885 29.80623108 50.33703613 29.13088989 C50.41544026 26.33693142 50.4835938 23.54274772 50.55224609 20.74853516 C50.60394848 18.70463086 50.66118235 16.66093364 50.71875 14.6171875 C50.74904297 13.39628418 50.77933594 12.17538086 50.81054688 10.91748047 C51 8 51 8 52 6 C54.5625 5.375 54.5625 5.375 57 5 C57 4.01 57 3.02 57 2 C50.07 2 43.14 2 36 2 C36 2.99 36 3.98 36 5 C36.969375 5.28875 37.93875 5.5775 38.9375 5.875 C42 7 42 7 43 9 C43.23487582 13.04947264 43.22843438 17.10073684 43.24023438 21.15649414 C43.24987928 23.16239359 43.28105383 25.16815199 43.3125 27.17382812 C43.36233949 39.51533274 43.36233949 39.51533274 40 45 C36.15021115 47.77542917 32.61687331 48.55280285 27.9609375 48.34765625 C24.54132801 47.74139082 22.54143073 46.29938971 20 44 C18.16182833 39.63962214 17.74349249 35.88203612 17.734375 31.17578125 C17.73179687 29.90025391 17.72921875 28.62472656 17.7265625 27.31054688 C17.73429687 25.99119141 17.74203125 24.67183594 17.75 23.3125 C17.74287046 21.96809516 17.7350641 20.62369374 17.7265625 19.27929688 C17.72914063 18.00763672 17.73171875 16.73597656 17.734375 15.42578125 C17.73663086 14.26473877 17.73888672 13.10369629 17.74121094 11.9074707 C18 9 18 9 20 6 C22.625 5.3125 22.625 5.3125 25 5 C25 4.01 25 3.02 25 2 C17.08 2 9.16 2 1 2 Z " fill="#9BB269" transform="translate(489,275)"/>
<path d="M0 0 C1.28132812 0.10183594 2.56265625 0.20367187 3.8828125 0.30859375 C4.87023437 0.39238281 5.85765625 0.47617187 6.875 0.5625 C6.875 3.8625 6.875 7.1625 6.875 10.5625 C5.555 10.2325 4.235 9.9025 2.875 9.5625 C2.441875 8.716875 2.00875 7.87125 1.5625 7 C1.005625 6.195625 0.44875 5.39125 -0.125 4.5625 C-3.75099422 4.14524322 -3.75099422 4.14524322 -7.125 4.5625 C-6.24732518 8.23324587 -5.67379496 10.12956175 -2.6640625 12.50390625 C-1.70242188 13.03886719 -0.74078125 13.57382812 0.25 14.125 C4.40302442 16.45897734 7.27181616 18.51310291 9.875 22.5625 C10.3513255 25.73621937 9.87029531 28.51974007 8.875 31.5625 C5.4346084 35.18396484 2.55155309 36.46760077 -2.4375 36.75 C-6.06509511 36.56554601 -8.71772708 35.72407031 -12.125 34.5625 C-13.61 35.0575 -13.61 35.0575 -15.125 35.5625 C-15.125 31.6025 -15.125 27.6425 -15.125 23.5625 C-14.135 23.5625 -13.145 23.5625 -12.125 23.5625 C-11.444375 24.985625 -11.444375 24.985625 -10.75 26.4375 C-9.32261746 29.56563679 -9.32261746 29.56563679 -7.125 31.5625 C-3.54156024 31.72927282 -3.54156024 31.72927282 -0.125 31.5625 C0.83002158 29.83773089 0.83002158 29.83773089 0.875 27.5625 C-2.25880622 23.6199696 -6.04168801 21.23138523 -10.35546875 18.7734375 C-12.125 17.5625 -12.125 17.5625 -14.125 14.5625 C-14.67031842 11.49723649 -14.66825893 8.62841671 -14.125 5.5625 C-9.59712638 -0.1569193 -7.03202149 -0.57534721 0 0 Z " fill="#F9FAF6" transform="translate(874.125,292.4375)"/>
<path d="M0 0 C2.75 0.5625 2.75 0.5625 4.6875 1.6875 C6.27513015 4.48920027 5.49070176 6.53235644 4.75 9.5625 C1.19706507 10.71197895 -0.04976669 10.6493937 -3.5625 9.125 C-4.449375 8.609375 -5.33625 8.09375 -6.25 7.5625 C-8.67416959 14.8927271 -11.93287633 25.19674733 -8.25 32.5625 C-5.72266765 33.21805119 -5.72266765 33.21805119 -3.25 33.5625 C-3.25 34.5525 -3.25 35.5425 -3.25 36.5625 C-10.51 36.5625 -17.77 36.5625 -25.25 36.5625 C-25.25 35.5725 -25.25 34.5825 -25.25 33.5625 C-23.6 32.9025 -21.95 32.2425 -20.25 31.5625 C-20.10503492 27.79206968 -20.01604393 24.02235258 -19.9375 20.25 C-19.89560547 19.17814453 -19.85371094 18.10628906 -19.81054688 17.00195312 C-19.79443359 15.97392578 -19.77832031 14.94589844 -19.76171875 13.88671875 C-19.73553467 12.93885498 -19.70935059 11.99099121 -19.68237305 11.0144043 C-20.01706794 8.30144336 -20.01706794 8.30144336 -22.78051758 6.85473633 C-23.59544678 6.42829834 -24.41037598 6.00186035 -25.25 5.5625 C-25.25 4.9025 -25.25 4.2425 -25.25 3.5625 C-20.71298506 2.11065522 -17.06938524 1.32740804 -12.25 1.5625 C-11.59 3.2125 -10.93 4.8625 -10.25 6.5625 C-9.81429687 6.129375 -9.37859375 5.69625 -8.9296875 5.25 C-4.06809243 0.70409292 -4.06809243 0.70409292 0 0 Z " fill="#FBFCF9" transform="translate(573.25,291.4375)"/>
<path d="M0 0 C3.35194968 0.90439397 4.32721263 2.62386145 6.0703125 5.55859375 C6.4119149 8.38405088 6.54356572 10.75579133 6.4453125 13.55859375 C6.44402344 14.25726563 6.44273437 14.9559375 6.44140625 15.67578125 C6.37310045 19.69823372 6.01471384 23.00908258 4.0703125 26.55859375 C1.0703125 28.55859375 1.0703125 28.55859375 -2.3671875 28.49609375 C-6.59000478 27.38482604 -7.6674633 26.21295591 -9.9296875 22.55859375 C-11.84778747 16.80429385 -11.73095572 10.63460687 -9.5546875 4.99609375 C-6.69340679 0.70417268 -5.13095761 0.30239484 0 0 Z " fill="#355B2D" transform="translate(605.9296875,296.44140625)"/>
<path d="M0 0 C8.25 0 16.5 0 25 0 C25 1.98 25 3.96 25 6 C23.02 6 21.04 6 19 6 C19.06872358 11.37562667 19.15661316 16.75046399 19.26245117 22.12548828 C19.29575026 23.9548265 19.32376657 25.7842687 19.34643555 27.61376953 C19.37989077 30.24036056 19.43219963 32.86599441 19.48828125 35.4921875 C19.49467117 36.31306854 19.5010611 37.13394958 19.50764465 37.97970581 C19.53942217 40.52614374 19.53942217 40.52614374 20 44 C23.42329851 46.28219901 24.84137668 46.29741163 28.875 46.3125 C29.90367187 46.32925781 30.93234375 46.34601563 31.9921875 46.36328125 C35.44782994 45.94591145 37.26497418 45.13628987 40 43 C41.21143606 41.00306313 41.21143606 41.00306313 41.8125 38.8125 C42.204375 37.554375 42.59625 36.29625 43 35 C44.98 35 46.96 35 49 35 C48.67 41.27 48.34 47.54 48 54 C31.83 54 15.66 54 -1 54 C-1 52.02 -1 50.04 -1 48 C1.97 47.505 1.97 47.505 5 47 C5 33.8 5 20.6 5 7 C3.35 6.67 1.7 6.34 0 6 C0 4.02 0 2.04 0 0 Z M1 1 C1 1.99 1 2.98 1 4 C3.475 4.99 3.475 4.99 6 6 C6 19.53 6 33.06 6 47 C4.02 47.66 2.04 48.32 0 49 C0 49.99 0 50.98 0 52 C15.18 52 30.36 52 46 52 C46.33 47.05 46.66 42.1 47 37 C46.01 37 45.02 37 44 37 C43.608125 38.093125 43.21625 39.18625 42.8125 40.3125 C41.87811423 42.91894451 41.05621926 43.95479807 38.8671875 45.71484375 C35.18625903 47.36474221 32.33246653 47.32874567 28.3125 47.25 C27.63638672 47.24484375 26.96027344 47.2396875 26.26367188 47.234375 C21.31105473 47.15552736 21.31105473 47.15552736 19 46 C17.72614873 42.1784462 17.87646812 38.5931553 17.90234375 34.61328125 C17.9037587 33.79627243 17.90517365 32.97926361 17.90663147 32.13749695 C17.91222706 29.52912732 17.92477871 26.92084366 17.9375 24.3125 C17.94251557 22.54362103 17.94707838 20.77474072 17.95117188 19.00585938 C17.96219504 14.67053981 17.97945662 10.33528448 18 6 C19.98 5.34 21.96 4.68 24 4 C24 3.01 24 2.02 24 1 C16.41 1 8.82 1 1 1 Z " fill="#89A354" transform="translate(717,276)"/>
<path d="M0 0 C0 7.26 0 14.52 0 22 C1.32 21.34 2.64 20.68 4 20 C9.88445371 19.16247147 14.81630365 20.00940595 20 23 C23.76804951 26.56815299 26.69617024 30.52696709 27.3359375 35.734375 C27.42202042 42.37997621 27.04925145 47.557175 23 53 C18.44638084 57.43685969 14.34905151 59.09604688 8.0625 59.3125 C3.63488824 59.25328974 0.9251894 58.05605159 -3 56 C-5.19718884 56.71260179 -6.38549433 57.38549433 -8 59 C-9.65 59 -11.3 59 -13 59 C-13.33 42.83 -13.66 26.66 -14 10 C-15.32 9.67 -16.64 9.34 -18 9 C-18 7.02 -18 5.04 -18 3 C-15.56318413 2.49645133 -13.12564561 1.99703244 -10.6875 1.5 C-9.99720703 1.35691406 -9.30691406 1.21382813 -8.59570312 1.06640625 C-5.67475227 0.47374956 -2.98891878 0 0 0 Z M-10.125 3 C-11.22070312 3.185625 -12.31640625 3.37125 -13.4453125 3.5625 C-14.28835938 3.706875 -15.13140625 3.85125 -16 4 C-16.33 4.99 -16.66 5.98 -17 7 C-14.525 7.99 -14.525 7.99 -12 9 C-11.67 24.84 -11.34 40.68 -11 57 C-7.19474637 56.31258204 -7.19474637 56.31258204 -5.1875 54.6875 C-4.1046875 54.3471875 -4.1046875 54.3471875 -3 54 C-1.26842911 54.98013447 0.46028193 55.96795452 2.14453125 57.02734375 C6.36027805 59.2372826 10.20832482 58.23611365 14.5625 56.9375 C19.56127131 54.12001072 23.16783165 50.49650504 25 45 C25.89143385 37.48487413 25.47964059 31.87942865 20.7734375 25.78125 C17.09499875 22.08660667 13.61882446 21.198803 8.4375 20.5625 C4.2883077 20.83137822 4.2883077 20.83137822 -1 25 C-1.33 17.41 -1.66 9.82 -2 2 C-4.77326794 2 -7.39199678 2.53480796 -10.125 3 Z " fill="#91AA60" transform="translate(597,271)"/>
<path d="M0 0 C0.80179688 0.00451172 1.60359375 0.00902344 2.4296875 0.01367188 C4.41149006 0.02546832 6.39325433 0.04340395 8.375 0.0625 C8.375 4.3525 8.375 8.6425 8.375 13.0625 C6.725 13.0625 5.075 13.0625 3.375 13.0625 C1.99631719 11.43314759 0.66225907 9.76500393 -0.625 8.0625 C-2.75446603 7.19284494 -2.75446603 7.19284494 -4.625 7.0625 C-2.88819352 10.99926136 -0.72555584 12.81630008 2.8125 15.0625 C9.42119444 19.32478501 9.42119444 19.32478501 11.375 23.0625 C12.09897603 26.59336669 12.47107275 29.60805271 11.375 33.0625 C8.80615276 36.5081517 6.11097024 38.738099 1.83129883 39.5378418 C-0.99033073 39.65199721 -3.74286435 39.58782917 -6.5625 39.4375 C-7.53251953 39.41042969 -8.50253906 39.38335937 -9.50195312 39.35546875 C-11.87727221 39.28526227 -14.25143559 39.17765946 -16.625 39.0625 C-16.625 33.7825 -16.625 28.5025 -16.625 23.0625 C-14.645 23.0625 -12.665 23.0625 -10.625 23.0625 C-10.41746094 23.62839844 -10.20992187 24.19429688 -9.99609375 24.77734375 C-9.02993866 27.07752051 -8.10297423 29.04785502 -6.625 31.0625 C-2.99846335 32.20206727 -2.99846335 32.20206727 0.375 32.0625 C0.26886164 29.61025306 0.26886164 29.61025306 -0.625 27.0625 C-2.80637797 26.03799761 -2.80637797 26.03799761 -5.625 25.0625 C-13.79004581 19.82248018 -13.79004581 19.82248018 -15.625 15.0625 C-16.3807317 8.36887636 -16.3807317 8.36887636 -14.57421875 5.24609375 C-10.07536853 -0.26134827 -6.71569248 -0.07086364 0 0 Z M-12.625 5.0625 C-14.36953716 8.55157433 -14.18881864 12.25506586 -13.625 16.0625 C-10.51120935 20.38162896 -6.05645612 22.79118782 -1.515625 25.4375 C0.375 27.0625 0.375 27.0625 1.203125 29.6875 C1.25984375 30.47125 1.3165625 31.255 1.375 32.0625 C0.375 33.0625 0.375 33.0625 -3 33.3125 C-6.625 33.0625 -6.625 33.0625 -8.4375 31.875 C-9.86211069 29.70059421 -10.76484883 27.51062255 -11.625 25.0625 C-12.615 25.0625 -13.605 25.0625 -14.625 25.0625 C-14.625 29.0225 -14.625 32.9825 -14.625 37.0625 C-12.15 36.5675 -12.15 36.5675 -9.625 36.0625 C-8.29166667 36.72916667 -6.95833333 37.39583333 -5.625 38.0625 C-0.40957241 38.54540996 2.98129839 37.95834879 7.375 35.0625 C9.56053732 32.36700398 10.29365919 30.54037726 10.875 27.125 C10.20325917 23.0105874 8.47960033 20.69421418 5.375 18.0625 C3.66429184 17.03124108 1.93351239 16.03278764 0.1875 15.0625 C-4.42899977 12.46957739 -4.42899977 12.46957739 -6.25 8.6875 C-6.37375 7.82125 -6.4975 6.955 -6.625 6.0625 C-3.375 5.6875 -3.375 5.6875 0.375 6.0625 C2.625 9.0625 2.625 9.0625 4.375 12.0625 C5.365 12.0625 6.355 12.0625 7.375 12.0625 C7.375 8.7625 7.375 5.4625 7.375 2.0625 C-3.52804258 0.20866945 -3.52804258 0.20866945 -12.625 5.0625 Z " fill="#8FA85B" transform="translate(873.625,290.9375)"/>
<path d="M0 0 C2.85819793 0.65958414 3.66778919 1.25783378 5.4375 3.5625 C5.79394531 5.90673828 5.79394531 5.90673828 5.765625 8.6328125 C5.76046875 9.61121094 5.7553125 10.58960938 5.75 11.59765625 C5.729375 12.61730469 5.70875 13.63695312 5.6875 14.6875 C5.68234375 15.71488281 5.6771875 16.74226563 5.671875 17.80078125 C5.59147613 25.40852387 5.59147613 25.40852387 4.4375 26.5625 C2.77320949 26.66073937 1.10468069 26.69223631 -0.5625 26.6875 C-1.92375 26.69136719 -1.92375 26.69136719 -3.3125 26.6953125 C-5.5625 26.5625 -5.5625 26.5625 -6.5625 25.5625 C-6.86907885 22.50982038 -6.84095659 19.44117621 -6.875 16.375 C-6.90400391 15.52357422 -6.93300781 14.67214844 -6.96289062 13.79492188 C-7.01988923 8.12575277 -6.60546178 1.44997942 0 0 Z " fill="#355B2D" transform="translate(690.5625,297.4375)"/>
<path d="M0 0 C0 1.32 0 2.64 0 4 C0.825 3.34 1.65 2.68 2.5 2 C6.41111392 -0.61979602 9.3749914 -0.45491888 14 0 C15.485 0.99 15.485 0.99 17 2 C17.37331109 5.42201828 17.63763183 7.90185629 15.875 10.9375 C13.16808705 12.47141734 11.05925999 12.25493833 8 12 C7.01 11.67 6.02 11.34 5 11 C2.79050168 15.41029783 2.7629352 19.48940324 2.875 24.3125 C2.88402344 25.05306641 2.89304687 25.79363281 2.90234375 26.55664062 C2.92575787 28.37123467 2.96162385 30.18566071 3 32 C4.98 32.33 6.96 32.66 9 33 C9 34.98 9 36.96 9 39 C0.42 39 -8.16 39 -17 39 C-17 37.02 -17 35.04 -17 33 C-14.03 32.505 -14.03 32.505 -11 32 C-11.33 24.41 -11.66 16.82 -12 9 C-13.65 8.67 -15.3 8.34 -17 8 C-17 6.02 -17 4.04 -17 2 C-11.19233704 0.4943096 -6.0018137 -0.21824777 0 0 Z M0 7 C-0.66 5.35 -1.32 3.7 -2 2 C-3.79206547 2.14084796 -5.58364917 2.28783701 -7.375 2.4375 C-8.87160156 2.55931641 -8.87160156 2.55931641 -10.3984375 2.68359375 C-12.97927613 2.84965626 -12.97927613 2.84965626 -15 4 C-15 4.66 -15 5.32 -15 6 C-14.1850708 6.42643799 -13.3701416 6.85287598 -12.53051758 7.29223633 C-10 9 -10 9 -9.43237305 11.4519043 C-9.45855713 12.39976807 -9.48474121 13.34763184 -9.51171875 14.32421875 C-9.52783203 15.35224609 -9.54394531 16.38027344 -9.56054688 17.43945312 C-9.60244141 18.51130859 -9.64433594 19.58316406 -9.6875 20.6875 C-9.71005859 21.77095703 -9.73261719 22.85441406 -9.75585938 23.97070312 C-9.8148421 26.64851905 -9.89709693 29.32357027 -10 32 C-11.65 32.66 -13.3 33.32 -15 34 C-15 34.99 -15 35.98 -15 37 C-7.74 37 -0.48 37 7 37 C7 36.01 7 35.02 7 34 C5.7934375 33.814375 5.7934375 33.814375 4.5625 33.625 C3.716875 33.41875 2.87125 33.2125 2 33 C-1.68287633 25.63424733 1.57583041 15.3302271 4 8 C4.886875 8.515625 5.77375 9.03125 6.6875 9.5625 C10.20023331 11.0868937 11.44706507 11.14947895 15 10 C16.13291596 5.94827836 16.13291596 5.94827836 14.9375 2.125 C8.53079146 -1.59502431 4.46052881 2.56586485 0 7 Z " fill="#97AE65" transform="translate(563,291)"/>
<path d="M0 0 C2.4375 0.5625 2.4375 0.5625 4.0715332 2.28613281 C5.67801835 4.96332093 5.7871393 6.44888491 5.73046875 9.546875 C5.72080078 10.48144531 5.71113281 11.41601562 5.70117188 12.37890625 C5.67603516 13.34699219 5.65089844 14.31507813 5.625 15.3125 C5.61146484 16.29605469 5.59792969 17.27960938 5.58398438 18.29296875 C5.54869197 20.71638077 5.49488659 23.13951049 5.4375 25.5625 C1.4775 25.5625 -2.4825 25.5625 -6.5625 25.5625 C-6.6706697 22.33243266 -6.74989234 19.10600246 -6.8125 15.875 C-6.84601562 14.96298828 -6.87953125 14.05097656 -6.9140625 13.11132812 C-6.97736952 8.75897082 -6.9790894 6.26061613 -4.70703125 2.453125 C-2.5625 0.5625 -2.5625 0.5625 0 0 Z " fill="#34592C" transform="translate(831.5625,297.4375)"/>
<path d="M0 0 C6.17291383 5.86426814 6.17291383 5.86426814 6.77734375 10.50390625 C6.8125 12.6875 6.8125 12.6875 6.5 16.375 C5.5 17.375 5.5 17.375 3.36694336 17.48852539 C2.45050049 17.48328857 1.53405762 17.47805176 0.58984375 17.47265625 C-0.39951172 17.46943359 -1.38886719 17.46621094 -2.40820312 17.46289062 C-3.44912109 17.45451172 -4.49003906 17.44613281 -5.5625 17.4375 C-6.60728516 17.43298828 -7.65207031 17.42847656 -8.72851562 17.42382812 C-11.3190666 17.41199913 -13.90950559 17.39551689 -16.5 17.375 C-16.20905019 18.83219085 -15.90916596 20.28759993 -15.60546875 21.7421875 C-15.43942139 22.55284668 -15.27337402 23.36350586 -15.10229492 24.19873047 C-14.61341296 26.51615089 -14.61341296 26.51615089 -12.8125 28.5 C-9.37675935 29.80000997 -7.03107266 29.242281 -3.5 28.375 C-2.613125 27.818125 -1.72625 27.26125 -0.8125 26.6875 C-0.049375 26.254375 0.71375 25.82125 1.5 25.375 C3.8125 26.1875 3.8125 26.1875 5.5 27.375 C5.5 31.375 5.5 31.375 4.07421875 32.82421875 C3.45160156 33.23285156 2.82898438 33.64148438 2.1875 34.0625 C1.57261719 34.47886719 0.95773437 34.89523437 0.32421875 35.32421875 C-5.10995259 38.45439453 -11.44441911 37.98414127 -17.5 37.375 C-22.61310953 35.70856526 -25.64252765 32.66420668 -28.5 28.1875 C-31.26928037 22.53629056 -31.68367134 17.15745815 -29.80078125 11.140625 C-27.30919115 5.54768858 -23.7517144 1.92969173 -18.1796875 -0.734375 C-12.20048767 -2.72163092 -5.69866915 -2.64581068 0 0 Z M-24.875 5.875 C-28.87693597 12.03182457 -29.28576397 17.05757301 -28.5 24.375 C-26.18026575 29.28213015 -22.78223069 32.1861048 -18.5 35.375 C-12.34843403 37.42552199 -7.15382153 36.58305734 -1.26171875 34.32421875 C0.75807015 33.23595112 2.06339069 32.16523622 3.5 30.375 C3.5 29.385 3.5 28.395 3.5 27.375 C-0.04518884 28.77259905 -0.04518884 28.77259905 -3.5 30.375 C-7.61481259 30.85956287 -11.24006314 31.05342754 -14.9375 29.0625 C-16.5 26.375 -16.5 26.375 -18.5 15.375 C-10.91 15.375 -3.32 15.375 4.5 15.375 C5.10077425 8.62283748 5.10077425 8.62283748 2.3125 4 C-2.25634901 -0.26425907 -6.03843423 -1.09435164 -12.15625 -0.94140625 C-17.40326112 -0.23305975 -21.26837009 2.07854746 -24.875 5.875 Z " fill="#8AA456" transform="translate(797.5,292.625)"/>
<path d="M0 0 C1.96066406 -0.03867187 1.96066406 -0.03867187 3.9609375 -0.078125 C8.62953042 0.33995795 11.0876987 1.58364417 14.24487305 5.00585938 C15.98243132 7.83119737 15.97062064 9.59110662 15.91796875 12.890625 C15.9034668 14.49550781 15.9034668 14.49550781 15.88867188 16.1328125 C15.86353516 17.24398438 15.83839844 18.35515625 15.8125 19.5 C15.79219727 21.18996094 15.79219727 21.18996094 15.77148438 22.9140625 C15.73615645 25.69319264 15.6868252 28.47135363 15.625 31.25 C16.945 30.92 18.265 30.59 19.625 30.25 C20.75 32.5625 20.75 32.5625 21.625 35.25 C19.625 38.25 19.625 38.25 16.625 39.25 C9.39055024 39.70933014 9.39055024 39.70933014 6.125 37.75 C5.63 37.255 5.135 36.76 4.625 36.25 C3.820625 36.745 3.01625 37.24 2.1875 37.75 C-2.20223456 39.59830929 -5.679672 39.99364311 -10.375 39.25 C-13.375 37.8125 -13.375 37.8125 -15.375 35.25 C-16.33921292 32.19190459 -16.85256487 29.43197714 -16.375 26.25 C-13.59122954 21.70108185 -9.95882038 19.63656766 -5.25 17.4375 C-4.61707031 17.12619141 -3.98414063 16.81488281 -3.33203125 16.49414062 C1.31407967 14.25 1.31407967 14.25 3.625 14.25 C2.965 11.94 2.305 9.63 1.625 7.25 C0.635 7.25 -0.355 7.25 -1.375 7.25 C-3.53526765 10.1570643 -3.53526765 10.1570643 -5.375 13.25 C-6.375 14.25 -6.375 14.25 -9.3125 14.4375 C-12.375 14.25 -12.375 14.25 -14.375 12.25 C-14.8173824 8.26855844 -15.03805693 6.11883322 -12.5625 2.875 C-8.53698314 -0.11538395 -4.88101058 0.05753647 0 0 Z M-13.375 6.25 C-13.05301034 9.34926819 -13.05301034 9.34926819 -12.375 12.25 C-9.54426564 12.75169415 -9.54426564 12.75169415 -6.375 12.25 C-5.715 11.26 -5.055 10.27 -4.375 9.25 C-3.715 8.26 -3.055 7.27 -2.375 6.25 C0.875 5.875 0.875 5.875 3.625 6.25 C4.285 9.22 4.945 12.19 5.625 15.25 C4.325625 15.641875 3.02625 16.03375 1.6875 16.4375 C-4.41011417 18.4732541 -10.72925921 20.78138881 -14.375 26.25 C-14.78586482 30.01626089 -14.87967817 32.35534325 -13 35.6875 C-8.90916533 38.12252064 -5.00574574 38.13100666 -0.375 37.25 C2.13255241 35.82345936 3.6099533 34.37110179 5.625 32.25 C5.975625 33.054375 6.32625 33.85875 6.6875 34.6875 C8.47074623 37.57637803 8.47074623 37.57637803 12.0625 38.25 C15.56362101 38.53149677 15.56362101 38.53149677 18.0625 36.9375 C19.85146934 35.38871247 19.85146934 35.38871247 19.625 33.25 C18.305 32.92 16.985 32.59 15.625 32.25 C15.6156543 31.54915283 15.60630859 30.84830566 15.59667969 30.1262207 C15.54285456 26.93760975 15.45923064 23.75044667 15.375 20.5625 C15.36082031 19.45970703 15.34664062 18.35691406 15.33203125 17.22070312 C15.18669779 10.83949988 15.18669779 10.83949988 12.7421875 5.0625 C8.07472953 1.06674262 2.94288005 0.87254151 -2.96875 0.98828125 C-7.32579397 1.46218051 -10.32409489 3.19909489 -13.375 6.25 Z " fill="#93AB5F" transform="translate(643.375,290.75)"/>
<path d="M0 0 C3.43811794 0.28650983 4.74171193 0.73433227 7.1875 3.25 C11.09875878 9.18432367 11.38938253 14.36669344 11.625 21.3125 C11.68300781 22.70952148 11.68300781 22.70952148 11.7421875 24.13476562 C11.83606313 26.42298407 11.92174509 28.71120295 12 31 C13.32 31.33 14.64 31.66 16 32 C16 33.98 16 35.96 16 38 C0.16 38 -15.68 38 -32 38 C-32 37.67 -32 37.34 -32 37 C-24.08 37 -16.16 37 -8 37 C-8 35.35 -8 33.7 -8 32 C-6.35 31.67 -4.7 31.34 -3 31 C-2.67 25.06 -2.34 19.12 -2 13 C-1.67 13 -1.34 13 -1 13 C-1 19.27 -1 25.54 -1 32 C-3.475 32.495 -3.475 32.495 -6 33 C-6 33.99 -6 34.98 -6 36 C0.93 36 7.86 36 15 36 C15 35.01 15 34.02 15 33 C14.195625 32.855625 13.39125 32.71125 12.5625 32.5625 C10 32 10 32 9 31 C8.87904372 29.424947 8.82041994 27.84500433 8.7890625 26.265625 C8.76070312 25.29882812 8.73234375 24.33203125 8.703125 23.3359375 C8.65144165 21.29444503 8.60705469 19.25275353 8.5703125 17.2109375 C8.42495404 10.09181578 8.42495404 10.09181578 5 4 C2.42816686 1.72462308 2.42816686 1.72462308 0 0 Z " fill="#849F52" transform="translate(698,292)"/>
<path d="M0 0 C0.89203125 0.00902344 1.7840625 0.01804687 2.703125 0.02734375 C3.37859375 0.03894531 4.0540625 0.05054688 4.75 0.0625 C4.75 0.3925 4.75 0.7225 4.75 1.0625 C3.46802734 1.24425781 3.46802734 1.24425781 2.16015625 1.4296875 C1.05542969 1.59726562 -0.04929687 1.76484375 -1.1875 1.9375 C-2.28964844 2.09992188 -3.39179687 2.26234375 -4.52734375 2.4296875 C-5.42582031 2.63851563 -6.32429687 2.84734375 -7.25 3.0625 C-7.58 3.7225 -7.91 4.3825 -8.25 5.0625 C-7.445625 5.206875 -6.64125 5.35125 -5.8125 5.5 C-3.25 6.0625 -3.25 6.0625 -2.25 7.0625 C-2.15688111 8.56668739 -2.13253972 10.07521356 -2.13647461 11.58227539 C-2.13655014 12.54319595 -2.13662567 13.50411652 -2.13670349 14.49415588 C-2.14186478 15.538936 -2.14702606 16.58371613 -2.15234375 17.66015625 C-2.1537587 18.72415146 -2.15517365 19.78814667 -2.15663147 20.88438416 C-2.16224936 24.29795083 -2.17480489 27.711453 -2.1875 31.125 C-2.19251269 33.43294176 -2.197076 35.74088455 -2.20117188 38.04882812 C-2.2122246 43.72007426 -2.22898013 49.39128253 -2.25 55.0625 C-1.486875 54.5675 -0.72375 54.0725 0.0625 53.5625 C2.75 52.0625 2.75 52.0625 5.75 52.0625 C3.5625 54.5625 3.5625 54.5625 0.75 57.0625 C-0.9 57.0625 -2.55 57.0625 -4.25 57.0625 C-4.58 40.8925 -4.91 24.7225 -5.25 8.0625 C-6.57 7.7325 -7.89 7.4025 -9.25 7.0625 C-9.25 5.0825 -9.25 3.1025 -9.25 1.0625 C-6.09493858 0.12630187 -3.28413498 -0.0432123 0 0 Z " fill="#839E53" transform="translate(588.25,272.9375)"/>
<path d="M0 0 C-3.55284373 2.36856249 -4.31195125 2.05530604 -8.375 1.4375 C-12.06165042 1.01811913 -13.6456062 0.8511546 -17.125 2.3125 C-19.26494775 4.23845297 -19.94752766 5.18667873 -20.1328125 8.05859375 C-20.13023437 8.84363281 -20.12765625 9.62867188 -20.125 10.4375 C-20.12757813 11.21996094 -20.13015625 12.00242187 -20.1328125 12.80859375 C-20.08382548 15.17895347 -20.08382548 15.17895347 -19 18 C-17.18808718 19.07591238 -17.18808718 19.07591238 -15 20 C-13.41905709 20.90605299 -11.85669458 21.84514505 -10.3125 22.8125 C-9.13107422 23.53373047 -9.13107422 23.53373047 -7.92578125 24.26953125 C-6 26 -6 26 -5.10546875 28.57421875 C-5.05326172 29.77498047 -5.05326172 29.77498047 -5 31 C-7 33 -7 33 -10.375 33.375 C-14 33 -14 33 -16.375 31.3125 C-18.13434402 28.80881813 -18.66466723 27.01799494 -19 24 C-19.99 24 -20.98 24 -22 24 C-22 27.96 -22 31.92 -22 36 C-22.33 36 -22.66 36 -23 36 C-23 31.71 -23 27.42 -23 23 C-21.35 23 -19.7 23 -18 23 C-17.484375 24.134375 -16.96875 25.26875 -16.4375 26.4375 C-15.42041851 28.39889754 -15.42041851 28.39889754 -14 30 C-10.36852515 31.0565109 -10.36852515 31.0565109 -7 31 C-7.10613836 28.54775306 -7.10613836 28.54775306 -8 26 C-10.18137797 24.97549761 -10.18137797 24.97549761 -13 24 C-21.16504581 18.75998018 -21.16504581 18.75998018 -23 14 C-23.7557317 7.30637636 -23.7557317 7.30637636 -21.94921875 4.18359375 C-16.15480178 -2.90986655 -8.39997721 -1.76841626 0 0 Z " fill="#96AE63" transform="translate(881,292)"/>
<path d="M0 0 C0.33 0 0.66 0 1 0 C1 1.65 1 3.3 1 5 C1.78375 4.95875 2.5675 4.9175 3.375 4.875 C6 5 6 5 8 7 C8.25878906 9.30664062 8.25878906 9.30664062 8.265625 12.15625 C8.26820313 13.17847656 8.27078125 14.20070313 8.2734375 15.25390625 C8.26570312 16.32511719 8.25796875 17.39632813 8.25 18.5 C8.25773438 19.57121094 8.26546875 20.64242188 8.2734375 21.74609375 C8.27085937 22.76832031 8.26828125 23.79054688 8.265625 24.84375 C8.26336914 25.78412109 8.26111328 26.72449219 8.25878906 27.69335938 C8 30 8 30 6 32 C4.68 32 3.36 32 2 32 C2 32.99 2 33.98 2 35 C9.59 35 17.18 35 25 35 C25.33 33.68 25.66 32.36 26 31 C26 32.98 26 34.96 26 37 C17.42 37 8.84 37 0 37 C0 35.02 0 33.04 0 31 C1.98 30.67 3.96 30.34 6 30 C5.67 22.41 5.34 14.82 5 7 C3.35 6.67 1.7 6.34 0 6 C0 4.02 0 2.04 0 0 Z " fill="#809C4F" transform="translate(546,293)"/>
<path d="M0 0 C0.33 0 0.66 0 1 0 C2.80759056 10.2483929 3.2182615 20.3536582 3.25 30.75 C3.25902344 31.96840576 3.26804687 33.18681152 3.27734375 34.44213867 C3.25228128 42.15145982 2.52535947 49.44269511 1 57 C0.67 57 0.34 57 0 57 C0 38.19 0 19.38 0 0 Z " fill="#8A9A6A" transform="translate(382,276)"/>
<path d="M0 0 C0.33 0 0.66 0 1 0 C1 2.31 1 4.62 1 7 C-6.26 7 -13.52 7 -21 7 C-19.85747022 15.23816568 -19.85747022 15.23816568 -17.3125 18.125 C-13.87675935 19.42500997 -11.53107266 18.867281 -8 18 C-7.113125 17.443125 -6.22625 16.88625 -5.3125 16.3125 C-4.549375 15.879375 -3.78625 15.44625 -3 15 C-0.6875 15.8125 -0.6875 15.8125 1 17 C1 18.32 1 19.64 1 21 C-1.8125 23.3125 -1.8125 23.3125 -5 25 C-5.99 24.67 -6.98 24.34 -8 24 C-6.5459375 23.1028125 -6.5459375 23.1028125 -5.0625 22.1875 C-1.76947958 20.28872491 -1.76947958 20.28872491 -1 17 C-1.969375 17.66 -2.93875 18.32 -3.9375 19 C-8.21690827 21.42181523 -12.17322626 22.05755155 -17 21 C-19.80024429 18.89981679 -21.42069399 17.33686003 -22.8125 14.125 C-23.07990011 11.09446547 -23 8.04230872 -23 5 C-15.41 5 -7.82 5 0 5 C0 3.35 0 1.7 0 0 Z " fill="#92AA61" transform="translate(802,303)"/>
<path d="M0 0 C0 1.32 0 2.64 0 4 C0.763125 3.505 1.52625 3.01 2.3125 2.5 C7.8315686 0.25495515 13.49740445 -0.14095056 19.23046875 1.7265625 C22.32006101 3.29365466 23.80958261 4.44144232 24.9375 7.75 C24.958125 8.4925 24.97875 9.235 25 10 C24.51789062 9.57847656 24.03578125 9.15695312 23.5390625 8.72265625 C22.90742187 8.17480469 22.27578125 7.62695312 21.625 7.0625 C20.99851562 6.51722656 20.37203125 5.97195313 19.7265625 5.41015625 C16.60077507 2.85719411 14.1186704 2.72957737 10.10546875 2.7734375 C6.95191059 3.11278142 4.65171843 4.31842246 2 6 C1.67 6.66 1.34 7.32 1 8 C0.34 8 -0.32 8 -1 8 C-1 6.35 -1 4.7 -1 3 C-5.29 3.66 -9.58 4.32 -14 5 C-14 5.66 -14 6.32 -14 7 C-12.35 7.33 -10.7 7.66 -9 8 C-9 15.92 -9 23.84 -9 32 C-9.33 32 -9.66 32 -10 32 C-10 24.41 -10 16.82 -10 9 C-11.98 9 -13.96 9 -16 9 C-16 7.02 -16 5.04 -16 3 C-13.70887834 2.49750857 -11.41708499 1.99807883 -9.125 1.5 C-7.84882812 1.2215625 -6.57265625 0.943125 -5.2578125 0.65625 C-2 0 -2 0 0 0 Z " fill="#8BA657" transform="translate(822,290)"/>
<path d="M0 0 C8.25 0 16.5 0 25 0 C25 2.31 25 4.62 25 7 C22.36 7 19.72 7 17 7 C17.33 6.34 17.66 5.68 18 5 C19.65 5 21.3 5 23 5 C23 4.01 23 3.02 23 2 C16.07 2 9.14 2 2 2 C2 2.99 2 3.98 2 5 C2.969375 5.144375 3.93875 5.28875 4.9375 5.4375 C8 6 8 6 9 7 C9.08783542 9.21855264 9.10694609 11.43988496 9.09765625 13.66015625 C9.0962413 14.32462265 9.09482635 14.98908905 9.09336853 15.6736908 C9.08775518 17.80333899 9.07520054 19.93288339 9.0625 22.0625 C9.05748671 23.50325369 9.05292351 24.94400903 9.04882812 26.38476562 C9.03778145 29.92321102 9.02050792 33.46159539 9 37 C8.67 37 8.34 37 8 37 C7.67 27.1 7.34 17.2 7 7 C4.69 7 2.38 7 0 7 C0 4.69 0 2.38 0 0 Z " fill="#7C984E" transform="translate(523,275)"/>
<path d="M0 0 C8.91 0 17.82 0 27 0 C27 2.31 27 4.62 27 7 C25.02 7 23.04 7 21 7 C21.99 6.34 22.98 5.68 24 5 C24.33 4.01 24.66 3.02 25 2 C17.08 2 9.16 2 1 2 C1 2.99 1 3.98 1 5 C1.804375 4.979375 2.60875 4.95875 3.4375 4.9375 C6 5 6 5 7 6 C7.08851529 8.59359322 7.11525945 11.16039691 7.09765625 13.75390625 C7.0962413 14.52935287 7.09482635 15.3047995 7.09336853 16.10374451 C7.08775345 18.59003494 7.07519846 21.0762366 7.0625 23.5625 C7.05748694 25.24413933 7.0529237 26.92578006 7.04882812 28.60742188 C7.03777913 32.73831566 7.02050445 36.86914276 7 41 C6.67 41 6.34 41 6 41 C5.67 30.11 5.34 19.22 5 8 C3.35 7.67 1.7 7.34 0 7 C0 4.69 0 2.38 0 0 Z " fill="#809C4F" transform="translate(489,275)"/>
<path d="M0 0 C3.35194968 0.90439397 4.32721263 2.62386145 6.0703125 5.55859375 C6.4119149 8.38405088 6.54356572 10.75579133 6.4453125 13.55859375 C6.44402344 14.25726563 6.44273437 14.9559375 6.44140625 15.67578125 C6.37310045 19.69823372 6.01471384 23.00908258 4.0703125 26.55859375 C1.0703125 28.55859375 1.0703125 28.55859375 -2.3671875 28.49609375 C-6.59000478 27.38482604 -7.6674633 26.21295591 -9.9296875 22.55859375 C-11.84778747 16.80429385 -11.73095572 10.63460687 -9.5546875 4.99609375 C-6.69340679 0.70417268 -5.13095761 0.30239484 0 0 Z M-7.9296875 5.55859375 C-10.30321419 10.30564712 -9.80101181 17.76537696 -8.24609375 22.75 C-7.26424735 24.62479592 -7.26424735 24.62479592 -4.9296875 26.55859375 C-1.9296875 27.55859375 -1.9296875 27.55859375 1.0703125 26.55859375 C4.26224023 23.61866031 4.9193357 21.77411101 5.453125 17.4765625 C5.74590627 10.33991824 5.74590627 10.33991824 3.3828125 3.74609375 C1.27299567 1.39212172 1.27299567 1.39212172 -1.4296875 0.93359375 C-4.6198264 1.73112848 -5.86102288 3.04664385 -7.9296875 5.55859375 Z " fill="#98AF65" transform="translate(605.9296875,296.44140625)"/>
<path d="M0 0 C0.61741425 8.02638522 0.61741425 8.02638522 -1.625 11.5625 C-4.62296955 13.37706052 -6.55316129 13.38298208 -10 13 C-11 12 -11 12 -11.3046875 9.640625 C-11 7 -11 7 -9.3203125 5.234375 C-8.59585938 4.74453125 -7.87140625 4.2546875 -7.125 3.75 C-6.04605469 2.99976563 -6.04605469 2.99976563 -4.9453125 2.234375 C-1.42405063 0 -1.42405063 0 0 0 Z " fill="#91AA5E" transform="translate(649,309)"/>
<path d="M0 0 C2.4375 0.4375 2.4375 0.4375 4.25 1.625 C5.4375 3.4375 5.4375 3.4375 5.4375 8.4375 C1.1475 8.4375 -3.1425 8.4375 -7.5625 8.4375 C-6.38796948 3.73937793 -5.03333876 0.85935052 0 0 Z " fill="#96AE61" transform="translate(787.5625,295.5625)"/>
<path d="M0 0 C0.33 0 0.66 0 1 0 C1.45058362 7.509727 1.6333366 13.77207353 -3 20 C-7.55361916 24.43685969 -11.65094849 26.09604688 -17.9375 26.3125 C-22.29271216 26.22799588 -25.30940542 25.46039639 -29 23 C-29.33 22.34 -29.66 21.68 -30 21 C-24.25 22.875 -24.25 22.875 -22 24 C-16.52634134 24.42930656 -12.80714654 23.67063697 -8 21 C-3.11333114 16.39699002 -0.84831302 11.87638228 -0.375 5.25 C-0.30023437 4.26515625 -0.22546875 3.2803125 -0.1484375 2.265625 C-0.09945312 1.51796875 -0.05046875 0.7703125 0 0 Z " fill="#8EA85C" transform="translate(623,304)"/>
<path d="M0 0 C1.98 0 3.96 0 6 0 C6 0.33 6 0.66 6 1 C4.35 1 2.7 1 1 1 C1 5.29 1 9.58 1 14 C2.98 13.34 4.96 12.68 7 12 C8.984375 12.8671875 8.984375 12.8671875 11 14 C14.05014928 14.24110759 14.05014928 14.24110759 17.25 14.125 C18.86648438 14.09792969 18.86648438 14.09792969 20.515625 14.0703125 C21.33546875 14.04710937 22.1553125 14.02390625 23 14 C21 16 21 16 18.84521484 16.22705078 C17.97590332 16.21657715 17.1065918 16.20610352 16.2109375 16.1953125 C15.26992188 16.18886719 14.32890625 16.18242187 13.359375 16.17578125 C12.37453125 16.15902344 11.3896875 16.14226562 10.375 16.125 C9.38242187 16.11597656 8.38984375 16.10695313 7.3671875 16.09765625 C4.91135612 16.07404249 2.45564826 16.0381707 0 16 C0 10.72 0 5.44 0 0 Z " fill="#7E9A4F" transform="translate(857,314)"/>
<path d="M0 0 C-1.98 0.66 -3.96 1.32 -6 2 C-6 2.66 -6 3.32 -6 4 C-4.35 4.33 -2.7 4.66 -1 5 C-1 12.92 -1 20.84 -1 29 C-1.33 29 -1.66 29 -2 29 C-2 21.41 -2 13.82 -2 6 C-3.98 6 -5.96 6 -8 6 C-8 4.02 -8 2.04 -8 0 C-4.94736336 -0.98120464 -3.05263664 -0.98120464 0 0 Z " fill="#7F9B52" transform="translate(814,293)"/>
<path d="M0 0 C0.25 2.8125 0.25 2.8125 0 6 C-1.75 7.9375 -1.75 7.9375 -4 9 C-6.25 8.6875 -6.25 8.6875 -8 8 C-7.875 6.25 -7.875 6.25 -7 4 C-1.66666667 0 -1.66666667 0 0 0 Z " fill="#3B6030" transform="translate(647,312)"/>
<path d="M0 0 C2.5625 0.1875 2.5625 0.1875 4.5625 2.1875 C4.5625 3.1775 4.5625 4.1675 4.5625 5.1875 C1.2625 5.1875 -2.0375 5.1875 -5.4375 5.1875 C-2.9575 0.2275 -2.9575 0.2275 0 0 Z " fill="#3D6231" transform="translate(787.4375,297.8125)"/>
<path d="M0 0 C2.3125 0.25 2.3125 0.25 5 1 C6 2.33333333 7 3.66666667 8 5 C10.59855733 5.8042208 10.59855733 5.8042208 13 6 C13 6.33 13 6.66 13 7 C7.04755307 8.5476362 7.04755307 8.5476362 4.19921875 7.05859375 C2.5625 5.75 2.5625 5.75 0 3 C0 2.01 0 1.02 0 0 Z " fill="#3B6030" transform="translate(869,298)"/>
<path d="M0 0 C0.99 0 1.98 0 3 0 C3 0.99 3 1.98 3 3 C3.763125 2.505 4.52625 2.01 5.3125 1.5 C10.28101775 -0.52109197 14.70651036 -0.25431356 20 0 C20 0.33 20 0.66 20 1 C19.41992188 1.02578125 18.83984375 1.0515625 18.2421875 1.078125 C12.70448699 1.48020226 9.5169609 2.55850598 5 6 C4.01 6.33 3.02 6.66 2 7 C2 5.35 2 3.7 2 2 C1.01 1.67 0.02 1.34 -1 1 C-0.67 0.67 -0.34 0.34 0 0 Z " fill="#98B067" transform="translate(678,291)"/>
<path d="M0 0 C1.65 0 3.3 0 5 0 C5.556875 1.134375 6.11375 2.26875 6.6875 3.4375 C8.4222876 6.55468831 8.4222876 6.55468831 11.75 7.9375 C12.4925 7.958125 13.235 7.97875 14 8 C14 8.33 14 8.66 14 9 C8.55414013 9.36305732 8.55414013 9.36305732 6.1875 7.8125 C4.72461964 5.57968261 4.35494045 3.62655933 4 1 C3.01 1 2.02 1 1 1 C1 4.96 1 8.92 1 13 C0.67 13 0.34 13 0 13 C0 8.71 0 4.42 0 0 Z " fill="#8EA857" transform="translate(858,315)"/>
<path d="M0 0 C2.65696068 0.15182632 4.44234524 0.47324024 6.41015625 2.33203125 C10.40843292 7.12296919 11.12287252 9.46700264 11.0625 15.625 C11.05347656 16.81351562 11.04445313 18.00203125 11.03515625 19.2265625 C11.02355469 20.14179688 11.01195312 21.05703125 11 22 C10.67 22 10.34 22 10 22 C9.98582031 21.29875 9.97164062 20.5975 9.95703125 19.875 C9.61324109 13.03636337 8.45839016 8.2878581 4 3 C1.87860167 1.04591976 1.87860167 1.04591976 0 0 Z " fill="#9BB26B" transform="translate(612,293)"/>
<path d="M0 0 C-1.45706726 0.50367757 -2.91570096 1.00282556 -4.375 1.5 C-5.59316406 1.91765625 -5.59316406 1.91765625 -6.8359375 2.34375 C-9 3 -9 3 -11 3 C-11 3.99 -11 4.98 -11 6 C-10.01 6.33 -9.02 6.66 -8 7 C-9.65 7 -11.3 7 -13 7 C-13 5.02 -13 3.04 -13 1 C-11.58622218 0.63447197 -10.16879424 0.28304505 -8.75 -0.0625 C-7.96109375 -0.25972656 -7.1721875 -0.45695312 -6.359375 -0.66015625 C-3.89605178 -1.01497267 -2.34395868 -0.76877544 0 0 Z " fill="#829E54" transform="translate(678,292)"/>
<path d="M0 0 C6.93 0 13.86 0 21 0 C21 1.65 21 3.3 21 5 C20.52046875 4.51917969 20.0409375 4.03835938 19.546875 3.54296875 C15.8724167 1.31687822 12.4733624 1.43506856 8.25 1.3125 C7.06083984 1.26125977 7.06083984 1.26125977 5.84765625 1.20898438 C3.89892496 1.12680896 1.94948638 1.06171955 0 1 C0 0.67 0 0.34 0 0 Z " fill="#A4AA97" transform="translate(181,270)"/>
<path d="M0 0 C0.61875 0.680625 1.2375 1.36125 1.875 2.0625 C6.36553981 4.84663468 9.95895922 3.90053544 15 3 C14.67 3.66 14.34 4.32 14 5 C10.30544877 6.23151708 6.83354962 6.72505768 3 6 C0.5 3.5 0.5 3.5 -1 1 C-0.67 0.67 -0.34 0.34 0 0 Z " fill="#8AA455" transform="translate(649,324)"/>
<path d="M0 0 C0.33 2.64 0.66 5.28 1 8 C0.34 8 -0.32 8 -1 8 C-1 6.35 -1 4.7 -1 3 C-3.64 3.33 -6.28 3.66 -9 4 C-7 1 -7 1 -4.5 0.3125 C-2 0 -2 0 0 0 Z " fill="#97AF69" transform="translate(822,290)"/>
<path d="M0 0 C0.556875 0.721875 1.11375 1.44375 1.6875 2.1875 C3.97909334 4.97457299 6.41459857 7.48641528 9 10 C6.75 9.875 6.75 9.875 4 9 C0 4.02702703 0 4.02702703 0 0 Z " fill="#95AD64" transform="translate(769,317)"/>
<path d="M0 0 C1.99954746 -0.04254356 4.00041636 -0.04080783 6 0 C7 1 7 1 7.09765625 2.84765625 C7.04882812 5.92382812 7.04882812 5.92382812 7 9 C6.67 9 6.34 9 6 9 C5.34 6.69 4.68 4.38 4 2 C3.01 2 2.02 2 1 2 C0.34 2.66 -0.32 3.32 -1 4 C-0.67 2.68 -0.34 1.36 0 0 Z " fill="#88A355" transform="translate(641,296)"/>
<path d="M0 0 C4.31392226 0.4793247 6.16569547 1.7457985 9 5 C8.67 5.99 8.34 6.98 8 8 C7.4225 7.236875 6.845 6.47375 6.25 5.6875 C4.28296907 3.33799083 2.51523256 1.70676495 0 0 Z " fill="#94AC62" transform="translate(838,292)"/>
<path d="" fill="#FFFFFF" transform="translate(0,0)"/>
</svg>
